<svg width="128" height="129" viewBox="0 0 128 129" fill="none" xmlns="http://www.w3.org/2000/svg">
<path d="M38.089 78.1461L26.689 83.0421L37.248 87.5561L49.489 83.0421L38.089 78.1461ZM20.951 84.2661L20.569 106.3L37.248 113.645V90.7691L20.951 84.2661V84.2661ZM55.227 84.2661L40.154 90.0051V111.58L55.227 105.459V84.2661ZM73.206 15.7151L61.73 20.6111L72.365 25.1261L84.606 20.6111L73.206 15.7151V15.7151ZM57.292 22.2181V44.2521L71.523 48.3841L71.982 28.3381L57.292 22.2181V22.2181ZM89.12 23.4421L75.654 29.1801V50.8321L89.12 44.7111V23.4421V23.4421ZM19.306 46.7271L7.90701 51.6241L18.465 56.1381L30.706 51.6241L19.306 46.7271V46.7271ZM2.16801 52.8481L1.78601 74.8821L18.465 82.2271V59.3511L2.16801 52.8481ZM36.443 52.8481L21.372 58.5861V80.1602L36.443 74.0401V52.8481ZM56.03 45.9111L44.63 50.8081L55.188 55.3221L67.429 50.8081L56.03 45.9111ZM38.893 52.0321L38.51 74.0671L55.189 81.4122V58.5351L38.893 52.0321V52.0321ZM73.168 52.0321L58.096 57.7701V79.3461L73.168 73.2251V52.0321V52.0321ZM109.076 15.7151L97.677 20.6111L108.236 25.1261L120.477 20.6111L109.076 15.7151ZM91.939 21.8361L91.557 43.8701L108.236 51.2141V28.3381L91.939 21.8361V21.8361ZM126.214 21.8361L111.143 27.5741V49.1491L126.214 43.0291V21.8361V21.8361Z" fill="#F7A80D"/>
</svg>
