<svg width="128" height="129" viewBox="0 0 128 129" fill="none" xmlns="http://www.w3.org/2000/svg">
<rect y="0.680176" width="128" height="128" rx="4" fill="white"/>
<path d="M115.4 31.3802L67.1 3.58017C66.3 3.08017 65.2 2.88017 64 2.88017C62.8 2.88017 61.7 3.18017 60.9 3.58017L12.9 31.4802C11.2 32.4802 10 34.9802 10 36.8802V92.5802C10 93.6802 10.2 94.9802 11 96.0802L117.8 34.0802C117.2 32.8802 116.3 31.9802 115.4 31.3802V31.3802Z" fill="#659AD3"/>
<path d="M10.7 95.9802C11.2 96.7802 11.9 97.4802 12.6 97.8802L60.8 125.78C61.6 126.28 62.7 126.48 63.9 126.48C65.1 126.48 66.2 126.18 67 125.78L115 97.8802C116.7 96.8802 117.9 94.3802 117.9 92.4802V36.7802C117.9 35.8802 117.8 34.8802 117.3 33.9802L10.7 95.9802V95.9802Z" fill="#03599C"/>
<path d="M85.3 76.7802C81.1 84.1802 73.1 89.1802 64 89.1802C50.5 89.1802 39.5 78.1802 39.5 64.6802C39.5 51.1802 50.5 40.1802 64 40.1802C73.1 40.1802 81.1 45.1802 85.3 52.6802L98.3 45.1802C91.5 33.2802 78.7 25.1802 64 25.1802C42.2 25.1802 24.5 42.8802 24.5 64.6802C24.5 86.4802 42.2 104.18 64 104.18C78.6 104.18 91.4 96.1802 98.2 84.3802L85.3 76.7802V76.7802Z" fill="white"/>
</svg>
