<svg width="128" height="129" viewBox="0 0 128 129" fill="none" xmlns="http://www.w3.org/2000/svg">
<path d="M18.8138 114.803L8.75977 2.03171H119.24L109.176 114.786L63.9328 127.329L18.8138 114.803Z" fill="#1572B6"/>
<path d="M64.001 117.742L100.56 107.606L109.161 11.2524H64.001V117.742Z" fill="#33A9DC"/>
<path d="M64.001 52.1087H82.303L83.567 37.9457H64.001V24.1147H98.683L98.351 27.8257L94.951 65.9397H64.001V52.1087Z" fill="white"/>
<path d="M64.083 88.0289L64.022 88.0469L48.619 83.8879L47.634 72.8569H33.752L35.689 94.5739L64.0199 102.437L64.083 102.419V88.0289V88.0289Z" fill="#EBEBEB"/>
<path d="M81.127 65.3551L79.461 83.8771L64.035 88.0411V102.431L92.389 94.5731L92.597 92.2361L95.003 65.3551H81.127Z" fill="white"/>
<path d="M64.0479 24.1147V37.9457H30.6399L30.3629 34.8377L29.7329 27.8257L29.4019 24.1147H64.0479V24.1147ZM64.0009 52.1107V65.9417H48.7919L48.5149 62.8337L47.8839 55.8217L47.5539 52.1107H64.0009V52.1107Z" fill="#EBEBEB"/>
</svg>
