<svg width="20" height="19" viewBox="0 0 20 19" fill="none" xmlns="http://www.w3.org/2000/svg">
<path d="M9.6 0C4.296 0 0 4.2984 0 9.6C0 13.8424 2.7504 17.44 6.564 18.708C7.044 18.7984 7.22 18.5016 7.22 18.2464C7.22 18.0184 7.212 17.4144 7.208 16.6144C4.5376 17.1936 3.9744 15.3264 3.9744 15.3264C3.5376 14.2184 2.9064 13.9224 2.9064 13.9224C2.0368 13.3272 2.9736 13.3392 2.9736 13.3392C3.9376 13.4064 4.444 14.328 4.444 14.328C5.3 15.796 6.6912 15.372 7.24 15.1264C7.3264 14.5056 7.5736 14.0824 7.848 13.8424C5.716 13.6024 3.4752 12.7768 3.4752 9.0984C3.4752 8.0504 3.8472 7.1944 4.4632 6.5224C4.3552 6.28 4.0312 5.304 4.5472 3.9816C4.5472 3.9816 5.3512 3.724 7.1872 4.9656C7.9552 4.752 8.7712 4.6464 9.5872 4.6416C10.4032 4.6464 11.2192 4.752 11.9872 4.9656C13.8112 3.724 14.6152 3.9816 14.6152 3.9816C15.1312 5.304 14.8072 6.28 14.7112 6.5224C15.3232 7.1944 15.6952 8.0504 15.6952 9.0984C15.6952 12.7864 13.4512 13.5984 11.3152 13.8344C11.6512 14.1224 11.9632 14.7112 11.9632 15.6104C11.9632 16.8952 11.9512 17.9272 11.9512 18.2392C11.9512 18.4912 12.1192 18.7912 12.6112 18.6952C16.452 17.436 19.2 13.836 19.2 9.6C19.2 4.2984 14.9016 0 9.6 0Z" fill="#030303"/>
</svg>
