<svg width="20" height="20" viewBox="0 0 20 20" fill="none" xmlns="http://www.w3.org/2000/svg">
<path d="M19.4117 8.12023H18.6384V8.08039H9.99844V11.9204H15.4239C14.6324 14.1558 12.5055 15.7604 9.99844 15.7604C6.81748 15.7604 4.23844 13.1814 4.23844 10.0004C4.23844 6.81943 6.81748 4.24039 9.99844 4.24039C11.4668 4.24039 12.8026 4.79431 13.8197 5.69911L16.5351 2.98375C14.8205 1.38583 12.5271 0.400391 9.99844 0.400391C4.69684 0.400391 0.398438 4.69879 0.398438 10.0004C0.398438 15.302 4.69684 19.6004 9.99844 19.6004C15.3 19.6004 19.5984 15.302 19.5984 10.0004C19.5984 9.35671 19.5322 8.72839 19.4117 8.12023Z" fill="#FFC107"/>
<path d="M1.50781 5.53207L4.66189 7.84519C5.51533 5.73223 7.58221 4.24039 10.0009 4.24039C11.4693 4.24039 12.8051 4.79431 13.8222 5.69911L16.5376 2.98375C14.823 1.38583 12.5296 0.400391 10.0009 0.400391C6.31357 0.400391 3.11581 2.48215 1.50781 5.53207Z" fill="#FF3D00"/>
<path d="M9.99953 19.5994C12.4792 19.5994 14.7323 18.6504 16.4358 17.1072L13.4646 14.593C12.5008 15.3231 11.3027 15.7594 9.99953 15.7594C7.50257 15.7594 5.38241 14.1672 4.58369 11.9453L1.45312 14.3573C3.04193 17.4663 6.26849 19.5994 9.99953 19.5994Z" fill="#4CAF50"/>
<path d="M19.4133 8.11992H18.64V8.08008H10V11.9201H15.4254C15.0453 12.9938 14.3546 13.9198 13.4637 14.5942C13.4642 14.5937 13.4646 14.5937 13.4651 14.5932L16.4363 17.1074C16.2261 17.2985 19.6 14.8001 19.6 10.0001C19.6 9.3564 19.5338 8.72808 19.4133 8.11992Z" fill="#1976D2"/>
</svg>
