<svg width="20" height="20" viewBox="0 0 20 20" fill="none" xmlns="http://www.w3.org/2000/svg">
<path d="M13.4802 0H5.71978C2.56588 0 0 2.56588 0 5.71978V13.4802C0 16.6341 2.56588 19.2 5.71978 19.2H13.4802C16.6341 19.2 19.2 16.6341 19.2 13.4802V5.71978C19.2 2.56588 16.6341 0 13.4802 0ZM17.2685 13.4802C17.2685 15.5724 15.5724 17.2685 13.4802 17.2685H5.71978C3.6276 17.2685 1.93152 15.5724 1.93152 13.4802V5.71978C1.93152 3.62757 3.6276 1.93152 5.71978 1.93152H13.4802C15.5724 1.93152 17.2685 3.62757 17.2685 5.71978V13.4802Z" fill="url(#paint0_linear_1305_61130)"/>
<path d="M9.60643 4.63477C6.86828 4.63477 4.64062 6.86242 4.64062 9.60053C4.64062 12.3386 6.86828 14.5663 9.60643 14.5663C12.3446 14.5663 14.5722 12.3387 14.5722 9.60053C14.5722 6.86239 12.3446 4.63477 9.60643 4.63477ZM9.60643 12.6349C7.93063 12.6349 6.57214 11.2764 6.57214 9.60057C6.57214 7.92477 7.93066 6.56629 9.60643 6.56629C11.2822 6.56629 12.6407 7.92477 12.6407 9.60057C12.6407 11.2763 11.2822 12.6349 9.60643 12.6349Z" fill="url(#paint1_linear_1305_61130)"/>
<path d="M14.5805 5.86029C15.2377 5.86029 15.7704 5.32755 15.7704 4.67038C15.7704 4.01321 15.2377 3.48047 14.5805 3.48047C13.9234 3.48047 13.3906 4.01321 13.3906 4.67038C13.3906 5.32755 13.9234 5.86029 14.5805 5.86029Z" fill="url(#paint2_linear_1305_61130)"/>
<defs>
<linearGradient id="paint0_linear_1305_61130" x1="9.6" y1="19.1441" x2="9.6" y2="0.14913" gradientUnits="userSpaceOnUse">
<stop stop-color="#E09B3D"/>
<stop offset="0.3" stop-color="#C74C4D"/>
<stop offset="0.6" stop-color="#C21975"/>
<stop offset="1" stop-color="#7024C4"/>
</linearGradient>
<linearGradient id="paint1_linear_1305_61130" x1="9.60643" y1="19.1447" x2="9.60643" y2="0.1497" gradientUnits="userSpaceOnUse">
<stop stop-color="#E09B3D"/>
<stop offset="0.3" stop-color="#C74C4D"/>
<stop offset="0.6" stop-color="#C21975"/>
<stop offset="1" stop-color="#7024C4"/>
</linearGradient>
<linearGradient id="paint2_linear_1305_61130" x1="14.5805" y1="19.143" x2="14.5805" y2="0.148029" gradientUnits="userSpaceOnUse">
<stop stop-color="#E09B3D"/>
<stop offset="0.3" stop-color="#C74C4D"/>
<stop offset="0.6" stop-color="#C21975"/>
<stop offset="1" stop-color="#7024C4"/>
</linearGradient>
</defs>
</svg>
