<svg width="20" height="20" viewBox="0 0 20 20" fill="none" xmlns="http://www.w3.org/2000/svg">
<rect width="20" height="20" rx="4" fill="white"/>
<path d="M9.52901 5.27539C13.6466 2.07879 11.5333 0 11.5333 0C11.8478 3.30462 8.13104 4.08489 7.13476 6.35573C6.45492 7.90528 7.60027 9.26209 9.52764 10.9721C9.35724 10.5934 9.09445 10.2254 8.82841 9.85279C7.92102 8.58205 6.97574 7.25824 9.52901 5.27539Z" fill="#E76F00"/>
<path d="M10.1864 11.6731C10.1864 11.6731 11.4251 10.6737 10.4441 9.56297C7.1186 5.79491 14.0813 4.08489 14.0813 4.08489C9.83026 6.13281 10.4649 7.34839 11.5334 8.8251C12.6774 10.4086 10.1864 11.6731 10.1864 11.6731Z" fill="#E76F00"/>
<path d="M13.8356 14.6545C17.6514 12.7046 15.8872 10.8308 14.6557 11.0833C14.3539 11.145 14.2193 11.1986 14.2193 11.1986C14.2193 11.1986 14.3314 11.026 14.5454 10.9512C16.9816 10.109 18.8551 13.4353 13.759 14.7527C13.759 14.7528 13.818 14.7009 13.8356 14.6545Z" fill="#5382A1"/>
<path d="M5.89565 12.1866C3.5082 11.873 7.20466 11.0097 7.20466 11.0097C7.20466 11.0097 5.76918 10.9145 4.0037 11.7537C1.91611 12.7467 9.16754 13.1983 12.9212 12.2275C13.3115 11.9655 13.8509 11.7383 13.8509 11.7383C13.8509 11.7383 12.3148 12.0081 10.7851 12.135C8.91324 12.2892 6.90371 12.3193 5.89565 12.1866Z" fill="#5382A1"/>
<path d="M6.80397 14.0484C5.47265 13.9129 6.34437 13.2784 6.34437 13.2784C2.89937 14.4028 8.2611 15.6778 13.0749 14.2936C12.5632 14.1162 12.2378 13.7918 12.2378 13.7918C9.8852 14.2373 8.5256 14.223 6.80397 14.0484Z" fill="#5382A1"/>
<path d="M7.38405 16.0629C6.05372 15.9125 6.83094 15.4681 6.83094 15.4681C3.70371 16.3274 8.73308 18.1025 12.7145 16.4245C12.0624 16.1752 11.5955 15.8873 11.5955 15.8873C9.81942 16.2178 8.99572 16.2437 7.38405 16.0629Z" fill="#5382A1"/>
<path d="M15.7117 17.0877C15.7117 17.0877 16.2868 17.5537 15.0782 17.9143C12.7801 18.5989 5.51308 18.8056 3.49434 17.9415C2.76865 17.6311 4.12952 17.2003 4.55759 17.1099C5.00403 17.0147 5.25916 17.0324 5.25916 17.0324C4.45212 16.4733 0.0428053 18.1302 3.01944 18.6046C11.1372 19.8992 17.8173 18.0217 15.7117 17.0877Z" fill="#5382A1"/>
<path d="M17 18.1059C16.8668 19.8102 11.2423 20.1686 7.57963 19.9381C5.1902 19.7874 4.71133 19.4108 4.70432 19.4053C6.99118 19.7761 10.8468 19.8436 13.973 19.2651C16.7439 18.752 17 18.1059 17 18.1059Z" fill="#5382A1"/>
</svg>
