<svg width="128" height="129" viewBox="0 0 128 129" fill="none" xmlns="http://www.w3.org/2000/svg">
<rect y="0.680176" width="128" height="128" rx="4" fill="white"/>
<path d="M52.7192 16.8282C51.4279 15.5318 49.6364 14.7333 47.6393 14.7333C45.6472 14.7333 43.8695 15.5318 42.5945 16.8282H42.5619C41.2744 18.1157 40.4758 19.9122 40.4758 21.8968C40.4758 23.8926 41.2744 25.6779 42.5619 26.9529L42.5945 26.988C43.8695 28.273 45.6472 29.0603 47.6393 29.0603C49.6364 29.0603 51.4279 28.273 52.7192 26.988L52.7343 26.9529C54.0268 25.6779 54.8154 23.8926 54.8154 21.8968C54.8154 19.9122 54.0268 18.1157 52.7343 16.8282H52.7192ZM47.6393 114.891C49.6364 114.891 51.4279 114.077 52.7192 112.805L52.7343 112.767C54.0268 111.497 54.8154 109.701 54.8154 107.726C54.8154 105.73 54.0268 103.942 52.7343 102.649H52.7192C51.4279 101.34 49.6364 100.549 47.6393 100.549C45.6472 100.549 43.8695 101.34 42.5945 102.649H42.5619C41.2744 103.942 40.4758 105.73 40.4758 107.726C40.4758 109.701 41.2744 111.497 42.5619 112.767L42.5945 112.805C43.8695 114.077 45.6472 114.891 47.6393 114.891ZM86.6701 93.1859C88.444 92.7195 90.05 91.5812 91.0316 89.8586L91.1633 89.6066C92.0358 87.9756 92.195 86.0901 91.7287 84.4164C91.2585 82.6299 90.1077 81.0453 88.3889 80.0586L88.2873 79.9909C86.6124 79.0707 84.7068 78.8701 82.9542 79.3478C81.1727 79.7929 79.5718 80.9788 78.5964 82.6863C77.6085 84.3838 77.4029 86.3345 77.8755 88.1298C78.3632 89.8962 79.5053 91.4922 81.2141 92.4901H81.2241C82.9366 93.4742 84.8723 93.651 86.6701 93.1859ZM54.9871 57.4711C53.1066 55.5956 50.5115 54.4197 47.6393 54.4197C44.7709 54.4197 42.1833 55.5956 40.3066 57.4711C38.4361 59.3441 37.2827 61.9279 37.2827 64.8001C37.2827 67.6723 38.4361 70.2674 40.3066 72.1617C42.1833 74.0259 44.7709 75.1906 47.6393 75.1906C50.5115 75.1906 53.1066 74.0259 54.9871 72.1617C56.8626 70.2674 58.016 67.6723 58.016 64.8001C58.016 61.9279 56.8626 59.3441 54.9871 57.4711ZM50.855 45.2616C55.0247 45.9486 58.7682 47.9457 61.6304 50.8279H61.6517C62.1068 51.2817 62.5493 51.7819 62.9618 52.2809L70.114 48.1438C69.1524 45.2377 69.1073 42.2001 69.8808 39.3505C70.9001 35.5355 73.3736 32.1205 77.0819 29.9805L77.2023 29.904C80.8706 27.8292 85.039 27.3967 88.8013 28.4159C92.6125 29.4376 96.0501 31.9224 98.1901 35.6245V35.6358C100.32 39.3179 100.751 43.5428 99.7359 47.3464C98.7217 51.1601 96.2394 54.599 92.5348 56.7264L91.5582 57.3031H91.4591C88.0328 58.9342 84.2655 59.1899 80.8054 58.2785C77.9645 57.5263 75.3594 55.9391 73.3184 53.6888L66.1762 57.8146C66.9974 59.986 67.4512 62.3266 67.4512 64.8001C67.4512 67.2611 66.9974 69.6356 66.1762 71.8182L73.3184 75.9328C75.3594 73.6473 77.9645 72.0965 80.8054 71.3418C84.6178 70.3 88.8427 70.7426 92.5348 72.8951L92.7717 73.0054V73.0167C96.3384 75.1793 98.733 78.5166 99.7359 82.2864C100.751 86.0675 100.32 90.2949 98.1901 93.9845L98.061 94.2415L98.0459 94.2202C95.9072 97.7769 92.5348 100.186 88.8126 101.206C84.9952 102.212 80.769 101.782 77.0819 99.6611V99.6323C73.3736 97.4885 70.9001 94.066 69.8808 90.2586C69.1073 87.4215 69.1524 84.3838 70.114 81.4791L62.9618 77.352C62.5493 77.8509 62.1068 78.3286 61.6517 78.7824L61.6304 78.805C58.7682 81.6771 55.0247 83.673 50.855 84.3374V92.6017C53.8262 93.2223 56.4865 94.7079 58.5701 96.7927L58.5814 96.814C61.3746 99.5947 63.1047 103.469 63.1047 107.726C63.1047 111.971 61.3746 115.822 58.5814 118.617L58.5701 118.661C55.7569 121.454 51.8981 123.184 47.6393 123.184C43.4031 123.184 39.5343 121.454 36.7273 118.661H36.716V118.617C33.9203 115.822 32.1865 111.971 32.1865 107.726C32.1865 103.469 33.9203 99.5947 36.716 96.814V96.7927H36.7273C38.8097 94.7079 41.475 93.2223 44.4349 92.6017V84.3374C40.2664 83.673 36.5292 81.6771 33.6721 78.805L33.642 78.7824C30.0741 75.2019 27.84 70.2674 27.84 64.8001C27.84 59.3441 30.0741 54.4096 33.642 50.8279H33.6721C36.5292 47.9457 40.2664 45.9486 44.4349 45.2616V37.0324C41.475 36.3905 38.8097 34.9049 36.7273 32.8313H36.716V32.8088C33.9203 30.003 32.1865 26.1555 32.1865 21.8968C32.1865 17.6606 33.9203 13.7792 36.716 10.9848L36.7273 10.9735C39.5343 8.169 43.4031 6.44018 47.6393 6.44018C51.8981 6.44018 55.7569 8.169 58.5701 10.9735V10.9848H58.5814C61.3746 13.7792 63.1047 17.6606 63.1047 21.8968C63.1047 26.1555 61.3746 30.003 58.5814 32.8088L58.5701 32.8313C56.4865 34.9049 53.8262 36.3905 50.855 37.0324V45.2616ZM91.0316 39.773L90.9702 39.6827C89.9848 38.0203 88.4102 36.9121 86.6701 36.4344C84.8723 35.9568 82.9366 36.1574 81.2141 37.1453H81.2241C79.5053 38.1206 78.3557 39.7153 77.8755 41.503C77.4029 43.277 77.6085 45.2377 78.5964 46.9465L78.6302 46.9904C79.6194 48.6766 81.1953 49.8074 82.9542 50.2625C84.7219 50.7627 86.6914 50.5508 88.3889 49.5629L88.4804 49.5191C90.1515 48.5211 91.2648 46.9465 91.7287 45.2164C92.2026 43.4312 92.0133 41.4805 91.0316 39.773Z" fill="#1A1919"/>
</svg>
