<svg width="128" height="129" viewBox="0 0 128 129" fill="none" xmlns="http://www.w3.org/2000/svg">
<g clip-path="url(#clip0_0_1858)">
<path d="M128 0.680176H0V128.68H128V0.680176Z" fill="#512BD4"/>
<path d="M22.8137 82.4579C21.9087 82.4579 21.1394 82.1564 20.5058 81.5531C19.8723 80.9345 19.5555 80.1999 19.5555 79.3494C19.5555 78.4831 19.8723 77.7409 20.5058 77.1223C21.1394 76.5036 21.9087 76.1943 22.8137 76.1943C23.7338 76.1943 24.5107 76.5036 25.1442 77.1223C25.7928 77.7409 26.1172 78.4831 26.1172 79.3494C26.1172 80.1999 25.7928 80.9345 25.1442 81.5531C24.5107 82.1564 23.7338 82.4579 22.8137 82.4579Z" fill="white"/>
<path d="M58.9942 81.9475H53.1113L37.6124 57.4959C37.2202 56.8772 36.8957 56.2353 36.6394 55.5703H36.5036C36.6243 56.2819 36.6846 57.8052 36.6846 60.1404V81.9475H31.4804V48.6802H37.7479L52.7267 72.5519C53.3603 73.5419 53.7676 74.2224 53.9486 74.5934H54.039C53.8883 73.712 53.8128 72.2195 53.8128 70.116V48.6802H58.9942V81.9475Z" fill="white"/>
<path d="M84.3366 81.9475H66.1224V48.6802H83.6126V53.3665H71.5077V62.7852H82.6625V67.4482H71.5077V77.2845H84.3366V81.9475Z" fill="white"/>
<path d="M110.222 53.3665H100.9V81.9475H95.5149V53.3665H86.2156V48.6802H110.222V53.3665Z" fill="white"/>
</g>
<defs>
<clipPath id="clip0_0_1858">
<rect y="0.680176" width="128" height="128" rx="4" fill="white"/>
</clipPath>
</defs>
</svg>
