<svg width="20" height="20" viewBox="0 0 20 20" fill="none" xmlns="http://www.w3.org/2000/svg">
<path d="M19.4816 10.996C19.4816 13.2202 19.4816 15.4444 19.4816 17.6677C19.4816 18.7305 19.0802 19.1606 18.0264 19.2232C13.6978 19.4783 9.36838 19.7233 5.04172 19.9932C4.2212 20.0447 3.61537 19.809 3.12437 19.133C2.33651 18.0499 1.48518 17.0119 0.65906 15.9574C0.216593 15.3937 -0.00277395 14.7721 2.64744e-05 14.0445C0.0158955 10.1791 0.0065608 6.31365 0.0065608 2.44917C0.0065608 1.32279 0.353813 0.934131 1.50759 0.845716C4.18853 0.640334 6.8704 0.455215 9.55134 0.261806C10.6668 0.180759 11.7842 0.112605 12.8988 0.01498C13.6745 -0.0531735 14.3643 0.108 15.0038 0.564813C16.2864 1.48212 17.5848 2.37825 18.8898 3.26424C19.3146 3.55251 19.4956 3.89697 19.49 4.41641C19.4667 6.60929 19.4798 8.8031 19.4807 10.996H19.4816ZM18.1206 11.124C18.1206 9.22123 18.1244 7.31938 18.1188 5.4166C18.1169 4.66876 17.9918 4.54627 17.2488 4.58587C14.9823 4.70652 12.7168 4.83546 10.4503 4.96624C8.54132 5.07676 6.6333 5.20109 4.72434 5.30701C4.28281 5.33187 4.07091 5.53726 4.05877 5.96368C4.05504 6.10182 4.04384 6.23905 4.04384 6.3772C4.04384 9.75264 4.04291 13.1281 4.04384 16.5035C4.04384 16.9023 4.03264 17.302 4.05597 17.6999C4.08958 18.2599 4.31175 18.4726 4.87837 18.4763C5.28163 18.479 5.68489 18.4312 6.08815 18.4081C9.7511 18.1991 13.4141 17.9937 17.0761 17.78C17.99 17.7266 18.115 17.5931 18.1169 16.6932C18.1225 14.8365 18.1188 12.9807 18.1197 11.124H18.1206ZM16.67 3.22556L16.7074 3.08741C15.8308 2.49153 15.0243 1.7971 14.0824 1.29424C13.7818 1.13399 13.4262 1.12017 13.0808 1.14412C10.1842 1.34766 7.28766 1.55028 4.39109 1.75474C3.69472 1.80447 2.99835 1.86249 2.30104 1.91407C2.09848 1.9288 1.85204 1.91223 1.7839 2.13326C1.72509 2.32391 1.96312 2.39483 2.08634 2.49706C2.43173 2.78164 2.80979 3.03031 3.13557 3.33424C3.68538 3.84723 4.31828 3.9863 5.05759 3.93749C8.23421 3.73027 11.4127 3.55344 14.5902 3.36279C15.2829 3.32135 15.9755 3.27161 16.6681 3.22556H16.67Z" fill="#050505"/>
<path d="M18.117 11.1248C18.117 12.9815 18.1208 14.8373 18.1152 16.694C18.1124 17.5938 17.9873 17.7274 17.0743 17.7808C13.4114 17.9945 9.74843 18.1999 6.08641 18.4089C5.68314 18.4319 5.27988 18.4789 4.87662 18.4771C4.31 18.4734 4.08784 18.2606 4.05423 17.7007C4.02996 17.3028 4.0421 16.9031 4.0421 16.5043C4.0421 13.1289 4.0421 9.75343 4.0421 6.37799C4.0421 6.23984 4.0533 6.10261 4.05703 5.96446C4.06917 5.53804 4.28107 5.33266 4.7226 5.30779C6.63155 5.20188 8.53958 5.07847 10.4485 4.96703C12.7141 4.83532 14.9806 4.70731 17.247 4.58666C17.9901 4.54705 18.1152 4.66955 18.117 5.41739C18.1226 7.32016 18.1189 9.22201 18.1189 11.1248H18.117ZM8.6964 9.94499L8.77668 9.90815C8.87283 10.0555 8.96991 10.202 9.06512 10.3493C10.1909 12.0937 11.3129 13.8399 12.4434 15.5806C13.1043 16.5982 13.67 16.7567 14.8004 16.3081C15.101 16.1884 15.2177 16.0429 15.2149 15.7067C15.1971 13.3149 15.2037 10.9222 15.2065 8.53035C15.2065 8.01643 15.0048 7.392 15.9178 7.39753C16.1549 7.39937 16.1959 7.09452 16.1735 6.87256C16.1446 6.58982 15.9131 6.71415 15.7731 6.71876C15.1215 6.7427 14.4699 6.78599 13.8184 6.82743C13.6326 6.83941 13.4422 6.84677 13.2639 6.89467C12.9848 6.96927 12.7878 7.16267 12.7944 7.45187C12.8018 7.78342 13.1229 7.62041 13.2928 7.69961C13.332 7.71803 13.3852 7.71527 13.431 7.71159C13.7232 7.68764 13.8258 7.79816 13.823 8.10393C13.8072 9.65304 13.8165 11.2012 13.8137 12.7503C13.8137 12.8167 13.8482 12.906 13.7288 12.9484C13.655 12.8397 13.5785 12.7292 13.5047 12.6168C12.3472 10.8743 11.1925 9.12992 10.0294 7.39108C9.94446 7.26398 9.90712 7.05216 9.68402 7.06689C8.69173 7.13136 7.69758 7.17741 6.70997 7.28148C6.37018 7.3174 6.18535 7.62778 6.20496 7.96302C6.22456 8.30102 6.54194 8.17669 6.71837 8.1684C7.1207 8.14998 7.19724 8.32036 7.19444 8.68139C7.17857 10.7978 7.17484 12.9143 7.19351 15.0298C7.19817 15.5603 7.22244 16.0364 6.50087 16.0696C6.44486 16.0724 6.37765 16.1083 6.33844 16.1506C6.23203 16.2667 6.14615 16.4141 6.18722 16.5669C6.2395 16.7594 6.42059 16.6673 6.54474 16.6618C7.3522 16.6277 8.15872 16.5872 8.96524 16.543C9.21541 16.5292 9.46278 16.4896 9.66161 16.3229C9.79323 16.2124 9.93139 16.0724 9.88471 15.8946C9.84644 15.75 9.65601 15.7795 9.53186 15.7426C9.3545 15.6901 9.16967 15.6552 8.98578 15.6275C8.79068 15.5981 8.68987 15.5262 8.6908 15.3043C8.69827 13.5175 8.69547 11.7308 8.69547 9.94499H8.6964Z" fill="#FAFAFA"/>
<path d="M16.6669 3.22738C15.9743 3.27343 15.2816 3.32316 14.589 3.36461C11.4114 3.55433 8.23296 3.73208 5.05635 3.93931C4.3161 3.9872 3.68414 3.84905 3.13432 3.33606C2.80854 3.03213 2.42955 2.78346 2.0851 2.49887C1.96095 2.39664 1.72384 2.32481 1.78265 2.13508C1.8508 1.91496 2.09723 1.93062 2.2998 1.91588C2.99617 1.86523 3.69254 1.80629 4.38985 1.75655C7.28642 1.55117 10.183 1.34947 13.0796 1.14593C13.4249 1.12199 13.7806 1.1358 14.0812 1.29606C15.0231 1.79892 15.8296 2.49335 16.7061 3.08923L16.6688 3.22738H16.6669Z" fill="#FAFAFA"/>
<path d="M8.69847 9.94525C8.69847 11.732 8.70221 13.5187 8.69381 15.3045C8.69287 15.5265 8.79369 15.5992 8.98879 15.6278C9.17268 15.6554 9.35657 15.6895 9.53487 15.7429C9.65902 15.7797 9.84945 15.7503 9.88772 15.8949C9.93439 16.0726 9.79624 16.2117 9.66462 16.3231C9.46579 16.4907 9.21749 16.5303 8.96825 16.5432C8.16173 16.5875 7.35427 16.628 6.54775 16.6621C6.4236 16.6676 6.24157 16.7597 6.19023 16.5672C6.14916 16.4143 6.2341 16.2669 6.34145 16.1509C6.37972 16.1085 6.44787 16.0726 6.50388 16.0699C7.22452 16.0358 7.20118 15.5596 7.19651 15.0301C7.17784 12.9136 7.18158 10.7981 7.19745 8.68165C7.20025 8.32062 7.1237 8.15023 6.72138 8.16865C6.54495 8.17694 6.22757 8.30128 6.20796 7.96327C6.18836 7.62895 6.37319 7.31765 6.71297 7.28174C7.70059 7.17766 8.69474 7.13161 9.68702 7.06715C9.91012 7.05241 9.94746 7.26424 10.0324 7.39133C11.1955 9.13017 12.3512 10.8745 13.5077 12.6171C13.5824 12.7294 13.658 12.8399 13.7318 12.9486C13.8513 12.9062 13.8167 12.8169 13.8167 12.7506C13.8195 11.2015 13.8102 9.65329 13.8261 8.10418C13.8289 7.79841 13.7262 7.68789 13.434 7.71184C13.3883 7.71552 13.335 7.71829 13.2958 7.69987C13.125 7.61974 12.8039 7.78276 12.7974 7.45212C12.7908 7.16201 12.9878 6.9686 13.2669 6.89492C13.4452 6.84703 13.6356 6.83966 13.8214 6.82769C14.4729 6.78624 15.1236 6.74295 15.7761 6.71901C15.9161 6.71348 16.1485 6.59007 16.1765 6.87282C16.1989 7.09477 16.1569 7.3987 15.9208 7.39778C15.0078 7.39226 15.2104 8.01669 15.2095 8.5306C15.2067 10.9224 15.2001 13.3152 15.2179 15.707C15.2207 16.0431 15.104 16.1887 14.8034 16.3084C13.673 16.7569 13.1073 16.5985 12.4464 15.5808C11.3159 13.8401 10.1939 12.093 9.06813 10.3496C8.97292 10.2022 8.87583 10.0548 8.77969 9.90841L8.69941 9.94525H8.69847Z" fill="#050505"/>
</svg>
