<svg width="128" height="129" viewBox="0 0 128 129" fill="none" xmlns="http://www.w3.org/2000/svg">
<rect y="0.680176" width="128" height="128" rx="4" fill="white"/>
<g clip-path="url(#clip0_0_1953)">
<path fill-rule="evenodd" clip-rule="evenodd" d="M63.9125 97.4701C32.0527 97.4701 6.225 80.1727 6.225 58.8352C6.225 37.4976 32.0527 20.2002 63.9125 20.2002C95.7725 20.2002 121.6 37.4976 121.6 58.8352C121.6 80.1727 95.7725 97.4701 63.9125 97.4701ZM72.7426 35.3051C48.5263 35.3051 28.8951 47.1304 28.8951 61.7176C28.8951 76.3048 48.5263 88.1301 72.7426 88.1301C96.9588 88.1301 114.83 80.0455 114.83 61.7176C114.83 43.3955 96.9588 35.3051 72.7426 35.3051Z" fill="url(#paint0_linear_0_1953)"/>
<path fill-rule="evenodd" clip-rule="evenodd" d="M94.08 80.0401C94.08 80.0401 97.5715 81.0937 99.6 82.1201C100.304 82.4763 101.522 83.187 102.4 84.1201C103.26 85.034 103.68 85.9601 103.68 85.9601L117.44 109.16L95.2 109.17L84.8 89.6401C84.8 89.6401 82.6704 85.9811 81.36 84.9201C80.2669 84.0351 79.8008 83.7201 78.72 83.7201C77.9677 83.7201 73.4358 83.7201 73.4358 83.7201L73.44 109.156L53.76 109.164V44.1902H93.28C93.28 44.1902 111.28 44.5148 111.28 61.6401C111.28 78.7654 94.08 80.0401 94.08 80.0401ZM85.52 58.2839L73.6059 58.2763L73.6 69.3243L85.52 69.3204C85.52 69.3204 91.04 69.3033 91.04 63.7004C91.04 57.9849 85.52 58.2839 85.52 58.2839Z" fill="url(#paint1_linear_0_1953)"/>
</g>
<defs>
<linearGradient id="paint0_linear_0_1953" x1="6.225" y1="20.2002" x2="77.6762" y2="126.887" gradientUnits="userSpaceOnUse">
<stop stop-color="#CBCED0"/>
<stop offset="1" stop-color="#84838B"/>
</linearGradient>
<linearGradient id="paint1_linear_0_1953" x1="53.76" y1="44.1902" x2="118.727" y2="107.857" gradientUnits="userSpaceOnUse">
<stop stop-color="#276DC3"/>
<stop offset="1" stop-color="#165CAA"/>
</linearGradient>
<clipPath id="clip0_0_1953">
<rect width="115.84" height="89.76" fill="white" transform="translate(6.08 19.7202)"/>
</clipPath>
</defs>
</svg>
