<svg width="128" height="129" viewBox="0 0 128 129" fill="none" xmlns="http://www.w3.org/2000/svg">
<path d="M122.266 56.6978L100.058 18.2338C97.2096 13.2898 91.9136 10.2338 86.2016 10.2338H41.7856C36.0736 10.2338 30.7776 13.2898 27.9296 18.2338L5.72161 56.6978C2.85761 61.6578 2.85761 67.7538 5.72161 72.6978L27.9296 111.162C30.7776 116.122 36.0736 119.162 41.7856 119.162H86.2016C91.9136 119.162 97.2096 116.122 100.058 111.162L122.266 72.6978C125.13 67.7538 125.13 61.6578 122.266 56.6978ZM87.8016 86.6978C82.0736 93.0498 74.2176 96.7938 65.6736 97.2418C65.0976 97.2738 64.5376 97.2898 63.9616 97.2898C56.0416 97.2898 48.5056 94.4098 42.5696 89.0658C29.4496 77.2578 28.3776 56.9698 40.2016 43.8338C41.1136 42.8258 42.0896 41.8658 43.1296 40.9858C45.1296 39.2578 48.1536 39.4818 49.8976 41.4978C51.6256 43.4978 51.3856 46.5378 49.3696 48.2658C48.6656 48.8738 47.9776 49.5458 47.3376 50.2658C39.0656 59.4498 39.8016 73.6578 49.0016 81.9298C53.4496 85.9458 59.1776 87.9778 65.1776 87.6578C71.1616 87.3378 76.6656 84.7138 80.6656 80.2658C88.9376 71.0818 88.1856 56.8738 79.0016 48.6018C77.0336 46.8258 76.8736 43.7858 78.6496 41.8178C80.4256 39.8498 83.4496 39.6898 85.4336 41.4658C98.5536 53.2738 99.6096 73.5618 87.8016 86.6978ZM68.7936 35.9138V63.0498C68.7936 65.6898 66.6496 67.8498 63.9936 67.8498C62.6816 67.8498 61.4656 67.3058 60.6016 66.4418C59.7376 65.5778 59.1936 64.3618 59.1936 63.0498V35.9138C59.1936 33.2578 61.3536 31.1138 63.9936 31.1138C66.6496 31.1138 68.7936 33.2578 68.7936 35.9138Z" fill="#77BC1F"/>
<path d="M123.658 55.8978L101.45 17.4338C98.3136 12.0098 92.4736 8.63377 86.2016 8.63377H41.7856C35.5136 8.63377 29.6736 12.0098 26.5376 17.4338L4.3296 55.8978C1.1936 61.3218 1.1936 68.0738 4.3296 73.4978L26.5376 111.962C29.6736 117.402 35.5136 120.762 41.7856 120.762H86.2016C92.4736 120.762 98.3136 117.402 101.45 111.962L123.658 73.4978C126.794 68.0738 126.794 61.3218 123.658 55.8978ZM86.2016 117.562H41.7856C36.6496 117.562 31.8816 114.81 29.3056 110.362L7.0976 71.8978C4.5376 67.4658 4.5376 61.9458 7.0976 57.4978L29.3056 19.0338C31.8816 14.5858 36.6496 11.8338 41.7856 11.8338H86.2016C91.3376 11.8338 96.1056 14.5858 98.6816 19.0338L120.89 57.4978C123.45 61.9458 123.45 67.4658 120.89 71.8978L98.6816 110.362C96.1056 114.81 91.3376 117.562 86.2016 117.562Z" fill="#5E9C76"/>
</svg>
