<svg width="128" height="129" viewBox="0 0 128 129" fill="none" xmlns="http://www.w3.org/2000/svg">
<path d="M119.838 17.6161C105.553 0.604147 77.336 -4.43785 56.942 6.37615L21.113 25.3761C16.266 27.9051 12.107 31.2471 8.901 35.1901C5.695 39.1331 3.514 43.5891 2.497 48.2731C2.04388 50.3751 1.81328 52.5189 1.809 54.6691C1.831 60.5001 3.549 66.2401 6.816 71.3991C3.753 75.2711 1.662 79.6191 0.670005 84.1811C-0.346106 88.9492 -0.203792 93.8914 1.085 98.5931C2.375 103.326 4.787 107.797 8.181 111.745C22.465 128.756 50.745 133.798 71.076 122.985L106.868 103.984C111.712 101.452 115.866 98.1061 119.064 94.1591C122.261 90.2121 124.431 85.7521 125.434 81.0661C125.894 78.9591 126.125 76.8221 126.122 74.6801C126.113 68.8601 124.417 63.1291 121.177 57.9711C124.239 54.1021 126.33 49.7581 127.324 45.2001C127.768 43.0911 127.994 40.9551 128 38.8141C128.002 31.2191 125.148 23.8141 119.838 17.6361V17.6161V17.6161Z" fill="#FF3E00"/>
<path d="M53.44 113.347C51.0867 113.851 48.6867 114.106 46.28 114.107C41.685 114.108 37.158 113.182 33.087 111.407C29.017 109.633 25.524 107.064 22.908 103.92C19.714 100.204 17.998 95.7491 18.001 91.1801C18.0029 89.8922 18.1369 88.6078 18.401 87.3471C18.6159 86.3986 18.9052 85.4684 19.266 84.5651L19.942 82.8571L21.769 84.0131C26.012 86.6041 30.753 88.5771 35.789 89.8471L37.117 90.1801L36.992 91.2841V91.8571C36.989 93.2381 37.506 94.5871 38.469 95.7111C39.247 96.6691 40.295 97.4551 41.521 97.9991C42.7767 98.55 44.1328 98.835 45.504 98.8361C46.2279 98.8386 46.9498 98.7618 47.657 98.6071C48.4243 98.44 49.1657 98.1702 49.861 97.8051L85.651 78.7111C86.724 78.1451 87.608 77.3621 88.219 76.4351C88.829 75.5081 89.147 74.4671 89.143 73.4091C89.133 72.0281 88.603 70.6841 87.628 69.5651C86.838 68.6191 85.784 67.8471 84.557 67.3131C83.3007 66.7741 81.9471 66.4984 80.58 66.5031C79.8561 66.501 79.1341 66.5781 78.427 66.7331C77.6631 66.8963 76.9259 67.1659 76.237 67.5341L62.592 74.7841C60.2958 75.9872 57.8501 76.8803 55.319 77.4401C52.979 77.9421 50.574 78.1981 48.158 78.2001C43.564 78.2001 39.039 77.2741 34.969 75.5021C30.899 73.7301 27.405 71.1641 24.786 68.0241C21.596 64.3061 19.88 59.8521 19.879 55.2841C19.881 53.9991 20.015 52.7171 20.279 51.4511C20.892 48.6351 22.2 45.9561 24.123 43.5841C26.045 41.2111 28.539 39.1971 31.446 37.6701L67.274 18.6801C69.522 17.4901 71.974 16.5901 74.547 16.0131C76.887 15.5141 79.292 15.2631 81.707 15.2631C86.312 15.2531 90.851 16.1731 94.935 17.9441C99.019 19.7141 102.525 22.2841 105.154 25.4301C108.325 29.1571 110.019 33.6141 109.999 38.1801C109.997 39.4718 109.862 40.7598 109.598 42.0241C109.383 42.9724 109.095 43.9022 108.734 44.8051L108.058 46.5131L106.231 45.3991C101.991 42.8041 97.249 40.8311 92.211 39.5651L90.883 39.2221L91.008 38.1171V37.5451C91.008 36.1601 90.492 34.8101 89.531 33.6801C88.742 32.7351 87.691 31.9641 86.465 31.4301C85.2111 30.8908 83.86 30.6141 82.495 30.6171C81.7783 30.6301 81.0651 30.721 80.368 30.8881C79.599 31.0486 78.8571 31.3187 78.165 31.6901L42.337 50.6801C41.4871 51.1211 40.7355 51.7301 40.128 52.4701C39.5614 53.161 39.1648 53.9752 38.97 54.8471C38.8818 55.2093 38.8272 55.5789 38.807 55.9511C38.806 57.3291 39.322 58.6731 40.284 59.7951C41.072 60.7401 42.124 61.5121 43.349 62.0451C44.6029 62.5844 45.9541 62.8608 47.319 62.8571C48.0429 62.8593 48.7649 62.7822 49.472 62.6271C50.2407 62.4651 50.9827 62.1955 51.676 61.8261L65.346 54.5341C67.6413 53.3291 70.0873 52.4358 72.619 51.8781C74.9724 51.3744 77.3723 51.1196 79.779 51.1181C84.375 51.1181 88.902 52.0431 92.974 53.8151C97.046 55.5871 100.543 58.1541 103.164 61.2951C106.354 65.0121 108.07 69.4661 108.071 74.0351C108.074 75.3341 107.936 76.6311 107.658 77.9091C107.049 80.7261 105.741 83.4061 103.819 85.7791C101.896 88.1511 99.401 90.1641 96.491 91.6901L60.726 110.68C58.4269 111.889 55.977 112.786 53.441 113.347H53.44Z" fill="white"/>
</svg>
