<svg width="30" height="31" viewBox="0 0 30 31" fill="none" xmlns="http://www.w3.org/2000/svg">
<path d="M13.5998 19.132L13.5981 19.1331L10.3773 17.2774L10.1999 17.1755L2 12.4515V21.6763L2.00839 21.7142C2.00895 21.7181 2.01007 21.722 2.01063 21.7253C2.01847 21.7615 2.02742 21.7977 2.03638 21.8333C2.19923 22.4651 2.5367 23.03 3.01799 23.4753C3.03311 23.4909 3.04878 23.5048 3.06445 23.5187L3.09187 23.546L14.2948 30V19.5328L13.5998 19.132ZM10.3773 23.8188L5.91752 21.2494V18.6533L6.75978 19.1387L10.158 21.0958L10.3773 21.2227V23.8188ZM10.3773 20.9705V20.9572L10.3891 20.9639L10.3773 20.9705Z" fill="#4284FF"/>
<path d="M5.79999 9.63109L14.315 14.5366V18.4323L14.2948 18.4207L11.106 16.5838L11.0942 16.5771L2 11.3377V9.24035L2.01567 9.17133C2.08283 8.88077 2.18692 8.60191 2.32571 8.34029C2.38448 8.22953 2.44995 8.12154 2.52159 8.0169C2.56636 7.95122 2.61393 7.88665 2.66318 7.82375C2.69116 7.78813 2.7197 7.75362 2.74937 7.71911C2.80981 7.64842 2.87584 7.57773 2.95028 7.50481C3.14727 7.30999 3.36945 7.13967 3.61066 6.99773L3.64424 6.97714L4.65552 6.39491L4.73387 6.34649H4.74058L4.9941 6.20121L13.6776 1.28126L13.8471 1.18552L13.8802 1.17438C14.0161 1.1293 14.1549 1.09256 14.2948 1.06584C14.3016 1.06417 14.3083 1.0625 14.315 1.06139C14.5383 1.01853 14.7644 0.997937 14.9905 1.00016H15.0291C15.1584 1.00295 15.2871 1.01241 15.4141 1.02911C15.7309 1.06974 16.0393 1.15546 16.3342 1.28404L16.3515 1.29127L16.3644 1.29684L18.4334 2.48912L5.79999 9.63109Z" fill="#80ACFF"/>
<path d="M27.9989 9.36058C27.9978 9.08171 27.9619 8.80507 27.892 8.53789C27.8662 8.43715 27.8383 8.34475 27.8075 8.25624C27.7482 8.08592 27.6748 7.92116 27.5892 7.76364C27.5864 7.75751 27.5831 7.75195 27.5797 7.74583C27.5489 7.68961 27.5165 7.6345 27.4823 7.57995C27.4432 7.5165 27.4017 7.45583 27.3581 7.39571L15.4141 13.9349V24.2846L24.4826 19.3202V21.2299L15.4141 26.195V29.8881C15.5457 29.8709 15.6766 29.8458 15.8053 29.8135L15.854 29.8013C15.9083 29.7868 15.9615 29.7707 16.013 29.7545L16.0488 29.7428L19.2919 27.9049L19.3317 27.8826L24.0108 25.1914L24.0635 25.1613L24.0825 25.1507V25.1379L24.5873 24.8613L25.0205 24.6114L25.03 24.6058L26.7486 23.6178L26.7727 23.5978C26.8175 23.561 26.8578 23.5249 26.8947 23.4903C27.1102 23.2933 27.2999 23.0679 27.4577 22.8218C27.5702 22.6471 27.6659 22.4628 27.7442 22.273C27.8013 22.1333 27.8495 21.9897 27.8881 21.8439C27.9625 21.5628 28 21.2711 28 20.9778V9.4001L27.9989 9.36058ZM24.0825 15.6431L19.3317 18.2442V15.686L24.0825 13.0849V15.6431Z" fill="#0059FF"/>
</svg>
