<svg width="128" height="129" viewBox="0 0 128 129" fill="none" xmlns="http://www.w3.org/2000/svg">
<path d="M63.8102 1.70651L4.55322 22.5605L13.9162 100.198L63.8732 127.655L114.087 99.8265L123.447 22.1915L63.8102 1.70651Z" fill="#B3B3B3"/>
<path d="M117.536 26.6781L63.672 8.30914V121.094L108.813 96.1111L117.536 26.6781Z" fill="#A6120D"/>
<path d="M11.201 27.0091L19.227 96.4431L63.671 121.094V8.30714L11.201 27.0091Z" fill="#DD1B16"/>
<path d="M78.4992 68.3498L63.6722 75.2838H48.0442L40.6972 93.6578L27.0342 93.9118L63.6722 12.4038L78.4992 68.3498ZM77.0652 64.8588L63.7702 38.5378L52.8642 64.4058H63.6712L77.0652 64.8588Z" fill="#F2F2F2"/>
<path d="M63.6709 12.4038L63.7689 38.5378L76.1439 64.4258H63.6979L63.6709 75.2668L80.8799 75.2838L88.9219 93.9138L101.996 94.1558L63.6709 12.4038Z" fill="#B3B3B3"/>
</svg>
