<svg width="128" height="128" viewBox="0 0 128 128" fill="none" xmlns="http://www.w3.org/2000/svg">
<rect width="128" height="128" rx="4" fill="white"/>
<path d="M42.9456 4.46983H80.3367L41.522 119.474C41.1234 120.656 40.3639 121.683 39.3505 122.411C38.3372 123.139 37.1211 123.53 35.8736 123.53H6.77491C5.82986 123.529 4.89843 123.304 4.05755 122.873C3.21667 122.442 2.49046 121.817 1.93892 121.049C1.38753 120.282 1.02691 119.394 0.88691 118.459C0.746908 117.525 0.831554 116.57 1.13384 115.675L37.2971 8.52463C37.6959 7.34256 38.4555 6.31534 39.4687 5.58761C40.482 4.85987 41.698 4.46829 42.9456 4.46799V4.46983Z" fill="url(#paint0_linear_0_1943)"/>
<path d="M97.2801 81.6074H37.9871C37.4357 81.6064 36.8968 81.7715 36.4407 82.0812C35.9846 82.391 35.6324 82.831 35.4301 83.3439C35.2278 83.8568 35.1847 84.4188 35.3066 84.9565C35.4284 85.4943 35.7095 85.9828 36.1131 86.3584L74.2131 121.92C75.3224 122.955 76.7831 123.531 78.3001 123.53H111.874L97.2801 81.6074Z" fill="#0078D4"/>
<path d="M42.9455 4.46983C41.6844 4.46509 40.4548 4.86369 39.4363 5.6074C38.4178 6.35111 37.6637 7.40098 37.2843 8.60367L1.17885 115.577C0.856526 116.476 0.755363 117.439 0.883919 118.385C1.01248 119.331 1.36697 120.232 1.91742 121.012C2.46787 121.792 3.19809 122.428 4.0463 122.866C4.89452 123.305 5.83579 123.532 6.79051 123.53H36.6409C37.7526 123.331 38.7917 122.841 39.652 122.109C40.5123 121.378 41.163 120.431 41.5376 119.365L48.7373 98.1457L74.4567 122.134C75.5342 123.025 76.886 123.518 78.2845 123.53H111.734L97.0632 81.6067L54.2975 81.6168L80.4718 4.46983H42.9455Z" fill="url(#paint1_linear_0_1943)"/>
<path d="M90.7035 8.51914C90.3053 7.33872 89.5467 6.31301 88.5347 5.58656C87.5227 4.8601 86.3082 4.46951 85.0624 4.46985H43.3913C44.6368 4.46998 45.851 4.86076 46.8628 5.58717C47.8746 6.31357 48.6331 7.33902 49.0314 8.51914L85.1957 115.674C85.4984 116.569 85.5835 117.524 85.4438 118.459C85.3042 119.394 84.9438 120.282 84.3925 121.05C83.8413 121.818 83.115 122.444 82.2739 122.875C81.4327 123.307 80.5009 123.532 79.5555 123.531H121.228C122.173 123.531 123.105 123.305 123.945 122.874C124.786 122.442 125.512 121.816 126.063 121.048C126.614 120.281 126.974 119.393 127.114 118.458C127.254 117.524 127.17 116.569 126.868 115.674L90.7035 8.51914Z" fill="url(#paint2_linear_0_1943)"/>
<defs>
<linearGradient id="paint0_linear_0_1943" x1="56.574" y1="13.2926" x2="17.7427" y2="128.008" gradientUnits="userSpaceOnUse">
<stop stop-color="#114A8B"/>
<stop offset="1" stop-color="#0669BC"/>
</linearGradient>
<linearGradient id="paint1_linear_0_1943" x1="68.7035" y1="66.7532" x2="59.7217" y2="69.7897" gradientUnits="userSpaceOnUse">
<stop stop-opacity="0.3"/>
<stop offset="0.071" stop-opacity="0.2"/>
<stop offset="0.321" stop-opacity="0.1"/>
<stop offset="0.623" stop-opacity="0.05"/>
<stop offset="1" stop-opacity="0"/>
</linearGradient>
<linearGradient id="paint2_linear_0_1943" x1="63.7637" y1="9.94641" x2="106.389" y2="123.507" gradientUnits="userSpaceOnUse">
<stop stop-color="#3CCBF4"/>
<stop offset="1" stop-color="#2892DF"/>
</linearGradient>
</defs>
</svg>
