<svg width="128" height="129" viewBox="0 0 128 129" fill="none" xmlns="http://www.w3.org/2000/svg">
<g clip-path="url(#clip0_0_1968)">
<rect y="0.680176" width="128" height="128" rx="4" fill="white"/>
<path d="M105.749 35.9442L76.3093 6.42418C74.7507 4.81781 72.8855 3.54072 70.8242 2.66861C68.7629 1.7965 66.5475 1.34713 64.3093 1.34713C62.0711 1.34713 59.8557 1.7965 57.7944 2.66861C55.7331 3.54072 53.8679 4.81781 52.3093 6.42418L22.7893 35.9442L64.1493 56.5842L105.749 35.9442ZM117.045 47.8642L122.885 53.7042C124.502 55.257 125.788 57.1203 126.666 59.1824C127.545 61.2445 127.998 63.4628 127.998 65.7042C127.998 67.9456 127.545 70.1639 126.666 72.226C125.788 74.288 124.502 76.1514 122.885 77.7042L75.84 125.214C74.7249 126.354 73.427 127.301 72 128.014V70.4242L117.045 47.8642ZM10.9493 47.8642L5.10933 53.7042C3.49293 55.257 2.2069 57.1203 1.32841 59.1824C0.44993 61.2445 -0.00289917 63.4628 -0.00289917 65.7042C-0.00289917 67.9456 0.44993 70.1639 1.32841 72.226C2.2069 74.288 3.49293 76.1514 5.10933 77.7042L52.16 125.214C53.28 126.355 54.576 127.304 56 128.014V70.4242L10.9493 47.8642Z" fill="black"/>
</g>
<defs>
<clipPath id="clip0_0_1968">
<rect y="0.680176" width="128" height="128" rx="4" fill="white"/>
</clipPath>
</defs>
</svg>
