<svg width="128" height="128" viewBox="0 0 128 128" fill="none" xmlns="http://www.w3.org/2000/svg">
<path d="M117.5 33.5L117.8 33.3C117.2 32.2 116.3 31.2 115.4 30.7L67.1 2.90001C66.3 2.40001 65.2 2.20001 64 2.20001C62.8 2.20001 61.7 2.50001 60.9 2.90001L12.9 30.8C11.2 31.8 10 34.3 10 36.2V91.9C10 93 10.2 94.2 10.9 95.3L10.7 95.4C11.2 96.2 11.9 96.9 12.6 97.3L60.8 125.2C61.6 125.7 62.7 125.9 63.9 125.9C65.1 125.9 66.2 125.6 67 125.2L115 97.3C116.7 96.3 117.9 93.8 117.9 91.9V36.1C118 35.3 117.9 34.4 117.5 33.5ZM82 66V62H87V57H92V62H97V66H92V71H87V66H82ZM85.3 52C81.1 44.5 73.1 39.5 64 39.5C50.5 39.5 39.5 50.5 39.5 64C39.5 77.5 50.5 88.5 64 88.5C73.1 88.5 81.1 83.5 85.3 76.1L98.2 83.7C91.4 95.5 78.6 103.5 64 103.5C42.2 103.5 24.5 85.8 24.5 64C24.5 42.2 42.2 24.5 64 24.5C78.7 24.5 91.5 32.6 98.3 44.5L85.3 52ZM115 66H110V71H106V66H100V62H106V57H110V62H115V66Z" fill="#9C033A"/>
</svg>
