<svg width="128" height="128" viewBox="0 0 128 128" fill="none" xmlns="http://www.w3.org/2000/svg">
<rect width="128" height="128" rx="4" fill="white"/>
<path d="M77 55C77.25 55.5 76.75 55.5 76.5 55.5L68 57.75C67.25 58.25 66.75 57.5 66.75 57.5C61.5 51 50.5 55.5 50 65C49.5 74 61.25 77.5 66.75 68.5H57.25C56.5 68.5 55.25 68.25 56.5 66L58.5 61.75C59 60.75 59.25 60.75 60.75 60.75H78.25C78.25 81 55.75 90 43.75 77.75C38.25 72 36.5 59 47.75 49.75C56.75 42.5 71.75 42.5 77 55ZM81 79C69.75 69.25 75.75 49 93.5 45.75C111.75 42.5 119.75 59.5 112.5 72.25C106.5 83 90.5 87.5 81 79ZM104.5 66.25C106.75 60 102.25 54 95.5 54.5C88 55.25 82.75 65 87.5 70.75C92.25 76.25 102 73.75 104.5 66.25ZM24.25 65.75V65.5L24.75 64.25L25.25 64H35.5L35.75 64.25L35.5 65.5L35.25 65.75H24.25ZM12.25 61.25C12.25 61.25 11.75 61.25 12 61L13 59.5L13.5 59.25H36.5L36.75 59.5L36.25 60.75L36 61L12.25 61.25ZM19.75 56.5L19.5 56.25L20.75 55L21.25 54.75H39.25V55L38.5 56.25L38 56.5H19.75Z" fill="#00ACD7"/>
</svg>
