<svg width="128" height="129" viewBox="0 0 128 129" fill="none" xmlns="http://www.w3.org/2000/svg">
<rect y="0.680176" width="128" height="128" rx="4" fill="white"/>
<path d="M101.848 49.6375C99.792 42.2962 95.664 35.8322 90.1227 30.8908L77.8613 43.1522C82.3333 46.7922 85.3493 52.1495 85.8987 58.2135V62.2348C85.968 62.2348 86.032 62.2135 86.1013 62.2135C92.2933 62.2135 97.3333 67.2535 97.3333 73.4455C97.3333 79.6375 92.2933 84.6802 86.1013 84.6802C86.032 84.6802 85.968 84.6615 85.8987 84.6588V84.6802H68.1227H64V102.014H85.8987V102.003C85.968 102.003 86.032 102.014 86.1013 102.014C101.853 102.014 114.667 89.1975 114.667 73.4482C114.667 63.5148 109.563 54.7575 101.848 49.6375Z" fill="#1976D2"/>
<path opacity="0.5" d="M52.16 68.9202L64.7467 56.3335C64.736 56.3202 64.7253 56.3095 64.7173 56.2988L52.1387 68.8775C52.144 68.8908 52.152 68.9042 52.16 68.9202Z" fill="#FFE082"/>
<path opacity="0.5" d="M52.16 68.9202L64.7467 56.3335C64.736 56.3202 64.7253 56.3095 64.7173 56.2988L52.1387 68.8775C52.144 68.8908 52.152 68.9042 52.16 68.9202Z" fill="#90CAF9"/>
<path d="M64 20.8828C42.312 20.8828 24.6667 38.5282 24.6667 60.2162C24.6667 60.8375 24.7307 61.4428 24.76 62.0562H42.0933C42.0427 61.4482 42 60.8375 42 60.2162C42 48.0855 51.8693 38.2162 64 38.2162C69.2507 38.2162 74.0747 40.0722 77.8613 43.1522L90.1227 30.8908C83.168 24.6882 74.0293 20.8828 64 20.8828Z" fill="#FF3D00"/>
<path opacity="0.5" d="M41.8987 84.6802H41.8933C40.264 84.6802 38.7253 84.3148 37.328 83.6855L24.768 96.2455C29.5493 99.8482 35.4693 102.014 41.8933 102.014H41.8987H64V84.6802H41.8987Z" fill="#90CAF9"/>
<path d="M41.8987 84.6802H41.8933C40.264 84.6802 38.7253 84.3148 37.328 83.6855L24.768 96.2455C29.5493 99.8482 35.4693 102.014 41.8933 102.014H41.8987H64V84.6802H41.8987Z" fill="#4CAF50"/>
<path d="M30.6667 73.4535C30.6667 67.2668 35.7067 62.2268 41.8933 62.2268C46.4347 62.2268 50.368 64.9548 52.136 68.8775L64.7147 56.2988C59.4853 49.3602 51.208 44.8935 41.8907 44.8935C26.16 44.8935 13.3333 57.6935 13.3333 73.4535C13.3333 82.7628 17.8427 91.0268 24.768 96.2455L37.328 83.6855C33.4133 81.9308 30.6667 78.0108 30.6667 73.4535Z" fill="#FFC107"/>
</svg>
