<svg width="128" height="129" viewBox="0 0 128 129" fill="none" xmlns="http://www.w3.org/2000/svg">
<rect y="0.680176" width="128" height="128" rx="4" fill="white"/>
<path d="M47.4596 37.7733L38.9822 39.1504L31.2474 42.5417L24.6776 46.674L18.4255 54.3032L14.8938 58.0441L11.4782 59.3032L10.5752 57.0953L12.1545 54.8157L12.5091 51.6008L13.567 51.6436L14.723 52.698L14.4112 49.4228L13.1297 48.5631L13.1691 47.315L10.1339 49.0323L7.38565 52.2751L6.81189 55.1733L7.9878 57.4943L9.08401 61.4368L11.3133 62.4922L13.6586 62.3772L15.8825 61.0852L14.3988 68.6088L15.8825 76.9796L14.2493 80.845L8.90073 86.6075L9.85152 90.0506L12.3856 94.04L17.163 97.4019L19.6971 97.749L22.5146 97.8446L20.7564 105.06L27.2207 107.709L35.2737 108.769L38.0284 106.968L38.2406 102.093L41.3141 97.0069L41.5258 92.9801L48.9433 93.5101L55.8309 92.8745L48.9433 97.0069L50.1093 101.987L54.4533 108.769L58.6922 110.57L62.083 109.193L63.4601 106.438L70.5599 101.034L71.9375 102.199L83.064 102.623L85.2888 100.822L85.5005 97.6424L84.7594 96.2658L84.229 87.6823L80.5205 80.2648L81.1565 76.9796L83.3813 78.1456L89.6334 83.9733L92.7064 84.1855L96.0971 82.8079L99.4884 80.2648L101.183 74.7543L111.144 75.3903L117.184 73.0594L122.059 68.5027L125.556 61.9329L126.403 54.1976L125.661 45.1903L123.754 37.1378L121.847 34.5947L119.198 33.7465L114.535 38.8326L110.297 40.3164L106.588 34.1704L102.879 30.7796L100.865 29.5081L92.812 22.8322L86.3487 19.3353L79.8845 18.8059L72.3613 20.0774L65.7915 22.5139L61.2348 26.2229L57.6324 30.5674L53.9239 31.6273L47.4596 37.7733Z" fill="#FFFF00"/>
<path d="M22.8737 56.8976C15.6125 65.367 17.2257 75.6384 19.2379 85.7026C18.1641 82.9887 17.0897 80.2748 16.0159 77.5624C15.62 75.0746 15.224 72.5868 14.8286 70.099C14.9416 67.555 15.0542 65.0114 15.1678 62.4678C16.1853 60.0373 17.2028 57.6063 18.2203 55.1753C19.7464 52.9141 21.2729 50.653 22.7994 48.3913C25.1737 46.413 27.5484 44.4343 29.9226 42.456C32.5225 41.3817 35.1233 40.3079 37.7236 39.2336C40.7762 38.8381 43.8288 38.4427 46.8819 38.0467C44.0549 41.2686 41.2285 44.491 38.402 47.713C31.5931 49.9213 27.5783 51.409 22.8737 56.8976Z" fill="#FFFFCC"/>
<path d="M57.0571 31.0929C52.0093 36.0182 49.2516 39.7326 46.0392 45.4991C43.7416 49.6245 41.1637 53.5975 38.7476 57.6651C37.5259 59.7241 37.4104 61.4503 37.0448 63.8245C35.8579 62.4116 34.6711 60.9981 33.4837 59.5851C34.0495 57.8887 34.6143 56.1929 35.1796 54.497C37.1016 51.0484 39.0241 47.5999 40.9461 44.1519C45.0162 40.1381 49.0868 36.1247 53.1569 32.1109C54.4568 31.7712 55.7572 31.4326 57.0571 31.0929Z" fill="#FFFFCC"/>
<path d="M81.9877 18.8826C77.944 20.3982 71.2298 20.8977 70.7641 25.5381C70.4324 28.8337 71.0126 30.4897 72.9989 33.9766C68.0925 28.899 66.8793 29.6849 57.3963 31.2627C58.7535 29.3407 60.1102 27.4187 61.4664 25.4967C63.8406 24.0265 66.2154 22.5567 68.5896 21.087C71.6422 20.4086 74.6952 19.7303 77.7478 19.0519C79.1608 18.9956 80.5743 18.9394 81.9877 18.8826Z" fill="#FFFFCC"/>
<path d="M93.1442 81.6529C94.4899 82.4837 94.461 83.0858 94.2359 83.6551C95.2978 83.2302 96.3596 82.8054 97.421 82.3816C98.1093 81.4577 98.7966 80.5343 99.4849 79.6104C99.9954 78.294 100.506 76.9787 101.016 75.6623C100.364 75.1717 99.712 74.6811 99.0591 74.1906C96.2077 74.5541 93.3563 74.9182 90.5045 75.2828C90.2928 75.8585 90.0801 76.4353 89.8675 77.012C89.9282 77.8308 89.9895 78.6501 90.0498 79.4689C90.3227 79.9545 90.5961 80.4396 90.869 80.9252C91.2939 81.1374 91.7182 81.3501 92.1431 81.5623C92.4773 81.5921 92.8105 81.623 93.1442 81.6529Z" fill="#CCCC00"/>
<path d="M92.3478 67.023C88.0595 68.2607 88.0929 68.6019 86.8268 72.8563C88.4983 70.1742 89.736 68.8205 92.3478 67.023Z" fill="#CCCC00"/>
<path d="M120.86 35.1879C120.098 35.54 119.355 35.7094 118.879 36.4066C117.853 37.9078 116.974 39.1703 115.278 40.2237C114.423 40.7547 113.539 41.0983 112.634 41.3812C111.882 41.6148 111.43 41.4056 110.791 41.8658C111.17 41.9316 111.55 41.9983 111.929 42.0645H114.439C115.471 41.4275 116.502 40.7905 117.534 40.154C118.141 39.5165 118.748 38.8795 119.354 38.2425C119.856 37.2244 120.358 36.2054 120.86 35.1879Z" fill="#CCCC00"/>
<path d="M52.5542 44.7037C50.8673 49.3202 49.3931 53.2772 46.838 57.4564C50.1123 53.9282 52.0975 50.9294 53.9732 46.9405C54.7018 45.391 54.8393 43.5726 56.8689 44.2485C56.96 45.7964 57.2872 47.3429 57.3779 48.8899C58.4746 41.0306 61.5665 37.7434 68.7539 34.6928C66.7214 34.9359 64.6888 35.1784 62.6567 35.421C60.7452 35.8458 58.8342 36.2706 56.9226 36.695C55.9823 38.0602 55.0415 39.4258 54.1017 40.7905C53.5857 42.0949 53.0702 43.3993 52.5542 44.7037Z" fill="#CCCC00"/>
<path d="M66.4783 44.5219C68.0288 51.8169 70.2606 58.8186 71.2298 66.2296C71.8593 71.0453 71.928 73.3588 69.5055 77.5135C66.8573 77.3422 65.2133 77.6405 62.6518 78.4803C52.4556 81.8227 46.6074 86.7375 39.7368 76.8347C41.9302 77.8682 44.1237 78.9016 46.3171 79.9356C47.8805 79.6283 49.4439 79.3215 51.0073 79.0132C53.768 77.406 56.5287 75.7977 59.2894 74.1905C61.443 73.7657 63.5971 73.3408 65.7507 72.916C66.4484 70.0044 67.1462 67.0917 67.844 64.1796C67.328 60.3267 66.812 56.4742 66.2965 52.6213C66.2363 50.8014 66.1755 48.9815 66.1147 47.1611C66.2363 46.281 66.3578 45.4015 66.4783 44.5219Z" fill="#CCCC00"/>
<path d="M84.0432 89.6616C83.1866 95.5884 86.0155 98.7745 84.8441 100.412C84.5124 100.875 84.0631 101.684 83.5616 101.906C81.7691 102.697 79.3047 101.757 79.1289 102.221H73.2135C72.4246 101.887 71.6362 101.553 70.8473 101.219C72.0605 99.7935 73.2738 98.3676 74.4875 96.9422C75.6704 94.3642 76.8538 91.7853 78.0367 89.2064C78.7952 86.5976 79.5538 83.9888 80.3118 81.3799H81.4952C82.3444 84.1407 83.194 86.9009 84.0432 89.6616Z" fill="#CCCC00"/>
<path d="M74.1006 72.4314C74.5812 75.1224 75.4159 75.7619 76.6815 78.3667C75.8388 82.6166 74.4856 87.6704 72.8564 91.4202C72.1696 93.0015 71.6153 93.8736 70.4035 95.0959C68.359 97.1608 66.2921 98.9588 63.9731 100.749C62.3036 102.035 61.1387 101.39 59.0792 101.098C58.2032 102.686 57.9616 103.568 56.3494 104.375C53.8701 105.614 51.6517 102.943 49.7054 101.371C51.1104 103.566 52.5154 105.76 53.9194 107.954C54.8906 108.865 55.8613 109.774 56.832 110.684C57.6508 110.805 58.4701 110.927 59.2894 111.049C60.3812 110.381 61.4734 109.713 62.5651 109.046C63.1419 107.954 63.7181 106.862 64.2944 105.77C65.5081 104.86 66.7219 103.95 67.9346 103.039C69.4213 101.766 70.908 100.491 72.3942 99.2173C73.3351 97.8825 74.2749 96.5482 75.2157 95.2129C76.0649 93.6356 76.9141 92.0582 77.7633 90.4809C78.856 87.2047 79.9477 83.928 81.0405 80.6523C81.1311 79.4081 81.2217 78.1645 81.3129 76.9204C79.9477 76.3142 78.583 75.7066 77.2174 75.1C76.2163 74.1601 75.1017 73.3717 74.1006 72.4314Z" fill="#CCCC00"/>
<path d="M41.4516 91.3909C46.0446 91.3909 50.8957 91.1359 55.1028 89.2064C56.2931 87.4209 57.4685 85.9621 58.9248 84.3837C57.5995 86.8874 57.1836 88.3029 56.832 91.1179C56.3768 91.7853 55.9221 92.4522 55.4668 93.1201C52.0083 93.2107 48.5504 93.3019 45.0919 93.393C43.9693 93.271 42.8471 93.15 41.7245 93.029C41.603 92.9069 41.482 92.7859 41.3604 92.6649C41.3913 92.24 41.4217 91.8152 41.4516 91.3909Z" fill="#CCCC00"/>
<path d="M40.8146 88.2058C40.696 87.129 40.577 86.0517 40.458 84.9739C39.6735 89.6975 39.8618 92.8636 37.6878 97.0951C36.0641 98.9762 34.0644 100.688 31.7744 101.604C31.9681 102.764 32.0259 103.49 31.9133 104.34C31.5099 107.4 25.3898 106.048 22.8722 105.926C26.9119 106.966 30.9506 108.006 34.9898 109.046C35.9003 108.682 36.8097 108.318 37.7202 107.954C38.024 106.195 38.3273 104.435 38.6306 102.676C39.4798 101.098 40.3295 99.5201 41.1787 97.9437C41.3301 96.972 41.482 96.0023 41.6339 95.0311C41.3604 92.756 41.088 90.4809 40.8146 88.2058Z" fill="#CCCC00"/>
<path d="M33.9887 61.5404C33.8622 63.8375 33.7138 64.7947 34.7264 66.8233C36.0138 69.4012 37.5952 71.8243 38.9942 74.3723C39.1461 72.6729 39.2975 70.9746 39.4494 69.2757C37.6295 66.6968 35.8091 64.1189 33.9887 61.5404Z" fill="#CCCC00"/>
<path d="M15.3072 78.8907C14.9127 79.7289 14.5193 80.5676 14.1248 81.4064C15.2091 85.0586 16.1733 87.3721 18.2378 90.5626C17.8782 91.855 17.6092 92.4208 16.7819 93.4742C14.965 93.1953 13.3513 93.1141 11.51 93.1201C13.5426 94.6969 15.5752 96.2753 17.6077 97.8526C18.6083 97.6698 19.6099 97.488 20.611 97.3062C21.6116 96.3052 22.6132 95.3041 23.6143 94.303C22.1883 92.0881 20.7624 89.8743 19.337 87.6594C17.9932 84.7369 16.65 81.8133 15.3072 78.8907Z" fill="#CCCC00"/>
<path d="M120.873 33.9796C122.111 39.5484 123.708 44.6878 123.559 50.3915C123.378 57.3892 122.014 66.2286 115.53 70.4482C108.269 75.1742 99.7454 72.9389 91.7785 70.9138C95.0248 72.2491 98.2711 73.5834 101.516 74.9182C104.55 75.0701 107.584 75.222 110.617 75.3729C112.68 74.7668 114.743 74.1602 116.806 73.5535C118.413 72.2182 120.022 70.884 121.629 69.5487C122.843 67.0006 124.056 64.4526 125.27 61.9045C125.725 58.9615 126.18 56.019 126.634 53.0765C126.271 50.1943 125.906 47.3125 125.543 44.4308C124.875 41.5794 124.207 38.7276 123.54 35.8762C122.651 35.2437 121.762 34.6116 120.873 33.9796Z" fill="#CCCC00"/>
<path d="M12.5141 50.5778C9.218 52.7234 7.92306 53.6652 8.28465 57.6417C8.61286 58.8325 8.94158 60.0234 9.2698 61.2142C9.73548 61.5295 10.2007 61.8442 10.6658 62.159C11.2411 62.3508 11.8159 62.542 12.3911 62.7338C13.4315 62.4877 14.472 62.2412 15.5119 61.9947C16.0463 60.3381 16.5802 58.6821 17.1137 57.0256C15.6354 57.7512 14.1567 58.4769 12.6785 59.2026H11.652C11.269 58.6139 10.8855 58.0252 10.502 57.4365C10.9677 56.7516 11.4328 56.0678 11.8985 55.383C12.1451 54.0826 12.3911 52.7821 12.6376 51.4817C12.9524 51.5774 13.2672 51.6735 13.582 51.7686C13.9655 52.0704 14.3485 52.3717 14.732 52.6721C14.6772 51.9882 14.6224 51.3034 14.5676 50.6191C14.3076 50.1813 14.0471 49.743 13.7872 49.3052C13.5272 49.0856 13.2672 48.8669 13.0072 48.6478C12.8428 49.2913 12.6785 49.9348 12.5141 50.5778Z" fill="#CCCC00"/>
<path d="M86.4692 19.2452C89.3948 21.9621 92.9853 24.3233 95.3256 27.6434C96.2311 28.9283 97.2372 29.5858 95.3102 31.4012C97.3463 30.8195 98.1028 30.8827 99.7329 31.0799C102.698 31.439 105.477 35.6541 105.654 38.6743C105.619 38.9567 104.831 39.5982 102.538 40.2312C102.493 40.3193 101.244 40.0604 101.275 40.145C101.513 40.7965 101.832 40.8966 102.318 41.2014C102.423 41.9266 102.491 43.0447 102.985 43.8376C104.428 43.8117 105.838 43.9691 107.25 44.2485C107.725 45.0374 107.654 45.8258 107.614 46.6147C108.16 46.5241 108.706 46.433 109.252 46.3423C109.101 45.0982 108.949 43.8545 108.798 42.6109C109.283 41.7916 109.768 40.9723 110.253 40.154C109.556 38.5757 108.858 36.9988 108.16 35.421C106.826 34.147 105.491 32.8729 104.156 31.5989C104.028 31.5924 103.898 31.586 103.771 31.5795C102.269 30.6581 100.768 29.7372 99.2672 28.8158C96.8188 26.8126 94.3709 24.8099 91.9224 22.8068C90.1045 21.6194 88.2871 20.4325 86.4692 19.2452Z" fill="#CCCC00"/>
<path d="M91.3975 41.6686C91.2431 41.9385 91.01 42.3698 90.7117 42.6687C91.9299 43.8212 92.531 44.5932 92.9659 46.2233C91.5882 46.9071 90.2106 47.5914 88.8335 48.2748C87.6676 49.3924 86.5016 50.51 85.3367 51.6272C83.8021 50.8014 83.4201 50.1674 82.6775 48.5925C81.8129 48.8216 80.9941 49.0418 80.2799 48.7798C80.7331 48.7833 81.0111 48.6702 81.4638 48.3903C82.2054 47.6198 82.9475 46.8493 83.6891 46.0788C84.999 45.0867 86.3094 44.0941 87.6192 43.102C88.4769 42.8226 89.334 42.5432 90.1917 42.2638C90.5189 42.1293 91.0698 41.8036 91.3975 41.6686Z" fill="#CCCC00"/>
<path d="M95.1996 45.7795C90.8173 48.1393 86.6197 50.5125 84.3789 54.994C84.3789 49.3057 90.0906 46.8015 95.1996 45.7795Z" fill="#CCCC00"/>
<path d="M83.5088 34.5892C80.2545 36.8081 77.9535 41.2861 78.2424 45.65C77.1825 41.8713 77.5581 38.3007 80.8128 35.6909C81.3622 35.424 81.9111 35.1565 82.4604 34.8901C82.81 34.7899 83.1592 34.6898 83.5088 34.5892Z" fill="#CCCC00"/>
<path d="M127.303 44.892C126.712 41.1705 125.734 37.5581 124.376 34.9608C124.211 34.643 123.96 34.3213 123.649 34.014C122.975 33.3491 121.976 32.7195 120.945 32.3649C119.851 31.9889 118.699 31.9122 117.784 32.3903C117.546 32.5148 117.326 32.6752 117.129 32.8749C116.536 33.4756 116.037 34.2047 115.536 34.9359C114.979 35.7497 114.42 36.5675 113.75 37.1393C112.973 37.8032 112.001 38.2061 111.085 38.5742C110.683 37.6025 110.221 36.7134 109.698 35.8787C109.072 34.8796 108.359 33.9442 107.574 33.0084C106.932 32.2449 106.308 31.6711 105.633 31.1571C104.956 30.6406 104.263 30.2058 103.456 29.7008C101.292 28.3456 99.45 26.7299 97.5709 25.0809C96.7172 24.3318 95.8546 23.5757 95.0109 22.88C90.5363 19.1904 86.3621 17.4009 81.8981 17.12C77.4644 16.8411 72.7827 18.0593 67.2553 20.3862C64.5877 21.5088 62.6064 22.8356 60.8807 24.4309C59.2321 25.9564 57.8326 27.7121 56.2941 29.7626C55.3986 29.8263 54.6062 29.9588 53.7963 30.283C52.9043 30.6397 52.0063 31.2174 50.9305 32.1672C50.167 32.8401 49.4364 33.5179 48.7301 34.2007C48.0687 34.8402 47.4267 35.4912 46.7937 36.1491C41.7614 36.9575 37.6614 37.85 33.9897 39.2724C30.2349 40.7267 26.9248 42.7279 23.5251 45.7427C22.136 46.9738 20.9337 48.2753 19.8813 49.6539C18.8474 51.0081 17.9623 52.432 17.1859 53.9337C16.5055 54.6862 15.8247 55.4458 15.0871 56.1102C14.3679 56.7576 13.6014 57.303 12.7427 57.6337L12.7432 57.6342C12.2437 57.8265 12.037 57.939 12.0146 57.9315C11.9897 57.9176 11.9757 57.8429 11.9403 57.7049C13.174 56.5275 13.3678 54.7983 13.4818 53.081C13.6298 53.2583 13.7722 53.4764 13.9196 53.7041C14.0825 53.9556 14.2493 54.2151 14.4495 54.4676L15.2868 55.5239L15.5811 54.2061C15.8282 53.1019 16.0129 51.6312 15.7251 50.3561C15.5388 49.5289 15.1548 48.7912 14.4859 48.2688C14.5502 48.1014 14.6104 47.9475 14.6702 47.7956C14.8804 47.2582 15.0965 46.7069 15.2803 46.1859L15.6429 45.153L14.5631 45.3402C13.1262 45.5898 10.0378 47.2871 7.86328 49.5438C7.05543 50.382 6.36114 51.3084 5.90542 52.2806C5.43128 53.2922 5.2191 54.3505 5.40289 55.4099C5.56326 56.3358 6.02645 57.2442 6.86816 58.1019C7.02156 58.72 7.16301 59.2564 7.31442 59.7405C7.48774 60.2913 7.67451 60.7839 7.9081 61.2685C8.54113 62.5849 9.55019 63.3887 10.7176 63.7638C11.6565 64.0651 12.6944 64.08 13.7124 63.8574C13.5137 65.0079 13.3882 66.2107 13.3394 67.5246C13.2751 69.2424 13.3379 71.1399 13.5272 73.3418C13.5685 73.825 13.6307 74.3569 13.7114 74.9346C13.7812 75.4277 13.8643 75.9118 13.954 76.3924C13.7637 76.9114 13.5725 77.4314 13.3817 77.9503C13.0854 78.7562 12.789 79.563 12.4932 80.3689C11.8412 81.0149 11.1893 81.6609 10.5378 82.3063C9.9297 82.9075 9.32108 83.5106 8.71296 84.1133C8.66265 84.1636 8.45745 84.3603 8.27168 84.5396C7.039 85.7255 6.79495 85.9611 7.14508 88.0484C7.35875 89.3274 7.7796 90.6233 8.43654 91.873C9.04167 93.0255 9.8535 94.1476 10.8954 95.1925C12.1959 96.4959 14.3265 98.1146 16.5573 98.9623C17.8323 99.4469 19.1467 99.6835 20.3799 99.4857C20.3171 99.6755 20.2559 99.8647 20.1866 100.056C19.9924 100.592 19.7757 101.129 19.5362 101.655C18.0231 104.972 19.5765 106.705 21.9946 107.807C23.2019 108.358 24.6373 108.731 25.971 109.079C26.244 109.149 26.5169 109.221 26.8606 109.314C28.4414 109.741 31.1717 110.526 33.6655 110.683C36.3874 110.855 38.8423 110.294 39.5002 107.85C39.7607 106.882 39.9121 106.14 39.9733 105.414C40.0301 104.74 40.0082 104.058 39.9295 103.216C40.7055 101.496 41.0347 101.012 41.602 100.183C41.7131 100.019 41.8475 99.8224 41.8879 99.7607C42.4965 98.8592 42.7814 98.2192 42.885 97.4985C42.9846 96.8032 42.9004 96.1104 42.7744 95.051C42.7625 94.9504 42.744 94.8035 42.7181 94.6093C44.3114 94.8135 45.8823 94.923 47.4442 94.933C48.2371 94.938 49.0295 94.9146 49.8219 94.8727C49.6197 94.9768 49.4209 95.0794 49.2038 95.191C49.1077 95.2403 49.0086 95.2916 48.9089 95.3429C46.8072 96.4237 46.7195 98.4712 47.3774 100.577C47.9706 102.477 49.1913 104.416 49.9573 105.596C51.5676 108.078 53.1041 110.178 54.9668 111.319C56.9197 112.516 59.1504 112.657 62.0302 111.099C63.495 110.305 63.9572 109.497 64.5792 108.407C64.7695 108.075 64.9797 107.712 65.2132 107.354C65.8189 106.954 67.325 105.711 68.8037 104.489C69.3068 104.073 69.8098 103.658 70.3776 103.196C70.7686 103.484 71.2407 103.683 71.811 103.819C72.5521 103.997 73.4346 104.077 74.492 104.152C75.2834 104.211 77.8643 104.209 79.5318 104.208C80.0468 104.208 80.4746 104.208 80.7311 104.21C82.4524 104.22 83.842 104.13 84.8919 103.535C86.011 102.9 86.6744 101.777 86.8194 99.7617C86.8826 98.8666 86.8941 98.3148 86.7701 97.751C86.654 97.2231 86.4274 96.7449 86.0384 96.0447C86.015 95.1741 85.9916 94.303 85.9687 93.4324C85.9443 92.5085 85.9189 91.5841 85.8945 90.6607C85.8651 89.5714 85.7451 88.6869 85.5239 87.8163C85.3048 86.9517 84.992 86.1199 84.5731 85.1223C84.2892 84.4475 84.0591 83.8274 83.834 83.2193L83.2299 83.4404L83.323 83.406L83.834 83.2193V83.2168C83.4739 82.2456 83.1188 81.3003 82.6217 80.2887C82.6541 80.0935 82.6865 79.8838 82.7179 79.6597C83.0376 79.9685 83.3579 80.2768 83.6776 80.5846L85.0926 81.9482C86.1719 82.9877 87.1585 83.933 88.3175 84.6163C89.5158 85.3235 90.8636 85.7339 92.6087 85.6513C94.4356 85.5651 96.3905 84.7956 98.0002 83.6082C99.5571 82.4587 100.807 80.9088 101.328 79.1935C101.479 78.6974 101.63 78.2009 101.78 77.7053C101.9 77.3098 102.02 76.9134 102.141 76.5174C104.703 76.9517 107.453 77.0917 110.109 76.8138C112.672 76.5443 115.148 75.8919 117.283 74.7528C120.423 73.0779 122.776 70.6105 124.467 67.681L124.468 67.6815C126.358 64.4072 127.417 60.5493 127.819 56.5793C128.141 53.3953 127.966 49.0667 127.303 44.892ZM94.1089 71.651C92.6326 71.1544 91.6062 70.4292 90.3087 69.6119C90.6618 71.2032 90.8227 72.8861 90.3526 74.4749C89.6065 76.9956 88.4017 81.1195 91.8238 81.8805C93.1267 82.1699 93.7174 82.128 95.5562 81.1792C94.068 81.5164 93.3175 81.4337 92.2945 81.244C91.3676 81.0736 90.876 80.4849 90.617 79.7907C90.9408 80.0242 91.4692 80.1512 92.3717 80.3689C94.9088 80.9805 97.3263 79.7588 97.7995 77.9996C98.0749 76.9717 98.0281 76.4318 98.6123 75.0307C99.1372 75.1931 99.6801 75.3405 100.237 75.4755C99.9227 76.5 99.6084 77.5255 99.2941 78.55C98.4788 81.2101 95.3017 83.3547 92.4967 83.3059C89.9033 83.2601 88.2592 81.6359 86.4687 80.0432C85.2355 78.945 84.0487 77.8956 82.8723 76.8556C79.6449 75.8371 77.058 74.6472 74.0627 72.4299C76.1944 74.9346 77.6402 76.3217 80.6131 77.5683C80.1808 81.9786 78.6483 85.1941 77.3414 89.4146C76.7497 91.3226 72.0809 98.9702 70.787 99.7158C69.8646 100.247 64.0857 105.114 62.9989 105.757C62.1891 106.832 61.4783 108.318 60.2611 108.961C56.5521 110.922 54.1684 107.167 52.1727 103.995C51.2637 102.55 48.7401 98.388 50.94 97.2221C53.0204 96.1209 54.1853 95.3334 56.3075 93.9399C56.6193 94.5082 57.1542 95.057 57.5029 95.6248C57.4262 95.0037 57.349 94.3832 57.2713 93.7616C57.1318 92.6365 57.1373 91.7231 57.2269 90.591C57.3136 89.4953 57.3993 88.399 57.4854 87.3028C57.1662 88.417 56.5282 89.5311 56.2094 90.6448C56.0819 91.0905 55.9763 91.4506 55.9156 91.7843C51.1537 92.7575 46.4261 92.8183 41.6627 91.9686C41.3589 90.205 40.9889 88.3677 40.6786 87.0503C40.5845 88.5255 40.6452 92.6041 40.6373 94.8882C40.6313 96.6573 40.5571 97.2629 39.6446 98.7685C38.7905 100.177 38.4289 100.497 37.2326 102.878C37.3322 104.381 37.3342 105.373 36.9352 106.799C36.2713 109.17 29.575 107.333 27.8089 106.849C25.6334 106.254 21.1364 105.369 22.2675 102.47C23.2626 99.917 23.8937 97.2261 24.3798 93.655C20.3943 87.9139 16.6883 80.0462 15.9771 73.0749C15.4247 67.6625 15.7559 64.331 16.9274 61.02C18.7831 55.774 21.38 51.2332 25.5462 47.5765C31.1658 42.6453 36.4192 40.665 44.6446 39.4129C42.6663 41.6272 40.7095 43.9686 38.5763 46.4793C36.4172 49.0208 35.1342 51.5878 33.7631 54.368C31.869 58.2075 31.9098 59.6688 34.4205 63.0396C36.5841 65.9447 37.752 67.2521 38.6968 70.095C37.9169 71.7027 37.633 73.0619 37.371 75.2579C40.0202 78.154 41.989 80.1383 44.5614 80.7494C47.0846 81.3491 49.1913 81.233 51.449 80.0795C56.4624 77.516 61.1013 74.206 66.7572 74.0695C69.3735 67.6371 69.109 62.2621 67.8529 56.0384C66.9948 51.788 66.6506 47.7638 66.3842 43.4307C65.3233 47.8933 65.1241 51.8174 65.911 56.2626C66.8598 61.6191 67.5974 67.538 64.9583 72.2456C59.8442 72.6371 55.4613 75.7484 50.8524 78.1356C48.9996 79.0954 47.0706 79.189 45.0201 78.6262C43.1166 78.1032 41.8321 76.8437 39.7816 74.4789C39.7492 72.1042 40.2851 71.0085 41.3754 68.8579C43.1275 65.4044 45.061 62.1899 47.1832 58.7922C44.5848 61.9284 42.123 64.5487 40.0779 67.7019C39.296 65.4751 38.1784 64.344 36.3266 61.8363C34.5182 59.3869 34.3289 58.3145 35.6811 55.4796C37.0408 52.6312 38.1938 50.1275 40.5083 47.6288C44.5071 43.3102 48.1703 38.5044 52.5432 34.251C54.918 31.9421 55.8822 32.0218 59.0314 31.5446C61.8783 31.1128 64.6574 30.5684 67.5606 29.8941C64.7531 30.1555 62.0392 30.2517 59.3053 30.3194C59.2769 30.3204 59.2491 30.3214 59.2207 30.3219C61.9102 26.8873 63.4711 24.9733 67.8385 23.0752C78.5925 18.4049 85.4253 17.8999 93.8728 25.0007C96.0622 26.8415 97.9743 28.628 100.194 30.2158C99.3893 30.2845 98.6955 30.429 97.778 30.7891C98.8947 30.5764 100.184 30.7871 101.343 30.9992C101.668 31.2104 102.003 31.4161 102.345 31.6178C103.912 32.5412 104.802 33.0512 105.861 34.528C106.982 36.0884 107.915 37.6478 108.738 39.3666C108.199 39.1738 107.747 39.011 107.344 38.8914C107.047 38.7549 106.724 38.6658 106.382 38.6324C105.704 38.5672 105.056 38.734 104.515 39.0667C104.493 39.0767 104.472 39.0867 104.45 39.0971C103.583 39.519 102.24 40.0001 101.342 40.146C101.8 40.3044 102.814 40.3637 103.292 40.1744C103.356 40.149 103.421 40.1296 103.488 40.1136C103.272 40.4807 103.132 40.8971 103.088 41.3478C103.031 41.945 103.152 42.5178 103.409 43.0153C103.41 43.0168 103.41 43.0183 103.411 43.0208C103.492 43.2115 103.605 43.3874 103.729 43.5144C103.318 43.6658 102.899 43.8386 102.467 44.0264C104.471 43.7211 106.278 43.6688 108.234 43.9263C108.363 44.5428 108.493 45.1963 108.613 45.8607C108.371 45.8796 108.129 45.898 107.887 45.9175C107.868 45.919 107.847 45.921 107.828 45.923C106.902 45.1833 105.871 45.3074 104.463 45.6291C100.179 46.6058 101.186 49.0094 99.2154 52.6312C101.261 50.13 101.11 47.5132 104.444 46.7233C105.221 46.5395 105.75 46.3089 106.276 46.3881C105.33 46.8643 104.511 47.6537 104.186 48.5701C103.271 51.1545 103.839 53.332 102.833 55.7461C104.079 53.588 104.154 51.4822 105.268 49.2116C105.668 48.3963 107.152 47.0909 108.063 47.071C108.314 47.065 108.563 47.06 108.813 47.0545C109.033 48.4909 109.167 49.9173 109.081 51.1002C108.926 53.2593 108.365 56.4638 108.03 57.69C109.158 56.2396 109.672 53.1681 110.167 51.0056C110.683 48.7544 110.553 46.0524 110.101 43.6339C109.481 40.3154 112.899 40.8552 114.883 39.2914C116.342 38.1413 117.346 36.3055 118.683 35.0046C120.01 33.7151 122.098 35.6102 122.62 36.8708C124.882 42.3439 125.912 50.9548 125.315 56.4722C124.644 62.6631 121.654 69.4217 116.194 72.4698C109.232 76.3551 101.025 73.9813 94.1089 71.651ZM84.218 99.148C83.9909 101.703 83.1397 101.871 80.8965 101.832C79.8775 101.814 75.8193 101.796 74.7893 101.707C73.3345 101.582 72.5177 101.452 72.073 101.12C74.359 99.4419 78.2434 92.5135 79.0004 90.1283C79.8013 87.6086 80.6778 85.4092 81.3298 83.0803C81.6296 84.0535 81.8667 85.0182 82.303 86.0522C83.0316 87.78 83.3878 88.8478 83.4401 90.701C83.4948 92.6564 83.5501 94.6123 83.6054 96.5676C84.2315 97.6638 84.3291 97.8979 84.218 99.148ZM15.4213 79.7971C16.8731 84.8185 19.3459 89.7532 22.0877 93.9015C22.0877 93.9254 22.0872 93.9493 22.0872 93.9743C21.9149 94.6875 21.7167 95.3818 21.2998 95.9396C19.3404 98.5613 14.3559 94.7129 12.913 93.2406C11.3362 91.6299 10.2803 89.7234 10.0288 87.9343C9.84603 86.6299 10.0238 86.5981 10.9338 85.6752C12.1605 84.433 13.3887 83.1904 14.6149 81.9487C14.8834 81.2315 15.1523 80.5138 15.4213 79.7971ZM12.6491 48.217C12.277 49.0159 12.0131 49.621 11.8333 50.2441C11.0518 52.943 12.1869 55.3521 9.73646 57.3085C10.888 59.6319 10.8352 60.5583 13.5137 59.485C14.5467 59.0706 15.3988 58.4899 16.1594 57.803C15.7968 58.7404 15.4606 59.7076 15.1438 60.7062C15.091 60.8716 15.0407 61.0379 14.9919 61.2028C13.0764 62.0156 10.5573 62.5321 9.59302 60.5189C9.12485 59.5418 8.86038 58.5825 8.51921 57.3478C5.36454 54.0796 10.0801 49.7644 12.6491 48.217ZM14.1995 51.679C13.81 51.2895 13.4983 51.0255 12.9952 51.0828C13.0376 50.7526 13.0938 50.4343 13.1735 50.135C13.2139 49.9811 13.2567 49.8302 13.3025 49.6788C13.9555 50.0593 14.1278 50.7486 14.1995 51.679ZM108.789 39.4721C108.908 39.7232 109.025 39.9787 109.14 40.2372C109.045 40.3069 108.954 40.3806 108.869 40.4583C108.714 40.0947 108.488 39.765 108.209 39.4891C108.397 39.4821 108.59 39.4761 108.789 39.4721Z" fill="black"/>
<path d="M1.8438 57.4494C2.34584 51.7656 3.45103 49.3117 7.48925 45.0339C2.42404 48.6035 1.15998 50.2257 1.8438 57.4494Z" fill="black"/>
<path d="M0.537403 52.8066C1.09522 50.2486 1.61519 49.2833 3.19203 47.1835C0.633528 48.9711 0.299831 49.7052 0.537403 52.8066Z" fill="black"/>
<path d="M59.9623 17.1474C56.9281 17.8785 56.3494 18.4398 55.4395 21.4142C56.8913 19.2362 57.7275 18.5275 59.9623 17.1474Z" fill="black"/>
<path d="M64.7476 16.7141C58.7291 18.1893 56.9605 19.2382 54.9613 26.2134C57.5024 21.1049 59.4269 19.2237 64.7476 16.7141Z" fill="black"/>
<path d="M77.7095 42.1422C78.351 39.3003 79.491 36.5615 83.9048 34.4428C78.0541 35.9081 76.9574 38.365 77.7095 42.1422Z" fill="black"/>
<path d="M114.934 42.3384C118.398 41.1033 120.068 38.3182 120.898 35.041C119.542 37.7877 117.449 40.0848 114.606 41.4918C113.081 42.2463 112.107 41.9833 110.403 41.822C112.135 42.319 113.233 42.9446 114.934 42.3384Z" fill="black"/>
<path d="M91.3327 45.1236C90.871 44.1559 90.0622 43.4626 89.1258 43.1194C89.9755 42.6657 90.8103 42.189 91.4617 41.5969C89.5542 42.4799 87.3333 42.2643 85.6967 43.3699C84.2549 44.3436 82.2651 47.4296 80.7999 48.738C81.8612 48.3261 82.8837 47.6139 83.8246 46.8628C83.8285 47.4211 83.9511 47.9864 84.2066 48.5223C84.5881 49.3212 85.2052 49.9323 85.9358 50.3143C85.4084 51.0091 84.9706 51.7871 84.6573 52.6497C87.4469 49.3436 91.4916 46.8469 95.2943 45.779C94.2314 45.7641 92.9728 45.9628 91.6908 46.3842C91.644 45.9578 91.5275 45.532 91.3327 45.1236Z" fill="black"/>
<path d="M87.3189 70.1045C87.1834 70.9606 86.9977 72.0245 86.8622 72.8811C87.2243 71.9119 87.6606 70.7858 88.0819 69.8619C88.5292 68.8843 88.7807 68.7921 89.729 68.2761C90.4014 67.9101 91.6226 67.407 92.295 67.041C91.6032 67.1575 90.363 67.412 89.6712 67.5285C87.8229 67.8408 87.6053 68.2846 87.3189 70.1045Z" fill="black"/>
<path d="M55.7497 37.0531C53.6046 39.1733 51.5217 46.4484 50.8558 49.359C51.9047 46.941 54.5285 40.1774 56.5416 38.4566C57.0975 37.981 57.4859 37.6891 57.9033 37.477C56.4624 39.893 56.568 40.4942 57.074 43.7315C57.5034 40.4404 58.6414 39.1688 60.5091 36.7134C62.5561 36.1994 64.4721 35.5843 66.5719 34.765C64.2037 35.033 61.8389 35.278 59.4697 35.5022C57.4805 35.6909 57.1602 35.6586 55.7497 37.0531Z" fill="black"/>
<path d="M84.9696 49.4372C84.5786 48.6194 84.9282 47.6343 85.748 47.2443C86.5678 46.8538 87.555 47.2025 87.946 48.0208C87.9833 48.0985 88.0127 48.1782 88.0371 48.2578C87.2542 48.8391 86.5365 49.5234 85.9343 50.3163C85.5294 50.1534 85.1703 49.8571 84.9696 49.4372Z" fill="#FFFFCC"/>
<path d="M103.287 42.3514C103.352 41.6736 103.93 41.174 104.607 41.2398C105.284 41.3055 105.785 41.9106 105.72 42.588C105.705 42.7324 105.666 42.8674 105.608 42.9919C104.988 43.098 104.368 43.2793 103.729 43.5144C103.462 43.2409 103.249 42.7419 103.287 42.3514Z" fill="#FFFFCC"/>
</svg>
