<svg width="128" height="129" viewBox="0 0 128 129" fill="none" xmlns="http://www.w3.org/2000/svg">
<path d="M19.037 114.556L9.03198 2.34114H118.968L108.952 114.539L63.933 127.019L19.037 114.556Z" fill="#E44D26"/>
<path d="M64 117.48L100.378 107.394L108.937 11.5161H64V117.48Z" fill="#F16529"/>
<path d="M64 53.1352H45.788L44.53 39.0411H64V25.2791H29.489L29.819 28.9711L33.201 66.8982H64V53.1352ZM64 88.8782L63.939 88.8952L48.612 84.7552L47.633 73.7802H33.816L35.744 95.3892L63.937 103.215L64 103.198V88.8782Z" fill="#EBEBEB"/>
<path d="M63.952 53.1352V66.8982H80.899L79.302 84.7472L63.952 88.8902V103.209L92.167 95.3892L92.374 93.0642L95.608 56.8312L95.943 53.1352H92.235H63.952ZM63.952 25.2791V39.0411H97.196L97.472 35.9491L98.1 28.9711L98.429 25.2791H63.952Z" fill="white"/>
</svg>
