<svg width="128" height="128" viewBox="0 0 128 128" fill="none" xmlns="http://www.w3.org/2000/svg">
<rect width="128" height="128" rx="4" fill="white"/>
<path d="M41.6216 102.3C41.5352 101.137 49.8554 101.697 51.014 101.83V101.83C60.5868 102.924 65.6297 102.807 75.8219 100.932C76.4887 100.809 76.4369 100.485 77.0179 100.835V100.835C79.0872 102.08 79.8312 105.624 77.5064 106.277C60.1414 111.159 41.9586 106.831 41.6216 102.3ZM-nan -nanL44.629 84.455C44.629 84.455 39.281 88.414 47.452 89.26C57.8027 90.3287 66.0195 90.436 79.9266 87.8272C80.4736 87.7245 80.5266 87.4017 80.9328 87.7822V87.7822C82.1119 88.8866 82.5149 91.7307 80.9404 92.0924C52.8715 98.5401 24.6788 91.0771 44.629 84.455L-nan -nanL-nan -nanZ" fill="#0074BD"/>
<path d="M-nan -nanL69.802 61.271C70.1328 61.6518 70.4226 62.0305 70.6747 62.4061C71.6299 63.8292 77.0696 66.7136 77.7025 65.1209C78.6996 62.6121 78.6712 59.7343 76.491 56.664C70.4599 48.1906 65.7232 43.6387 86.1643 30.6862C88.7683 29.0362 88.4128 28.1273 85.5262 29.2093C74.4155 33.3738 54.6077 43.7611 69.802 61.271L-nan -nanL-nan -nanZ" fill="#EA2D2E"/>
<path d="M-nan -nanL102.123 108.229C102.123 108.229 105.652 111.139 98.235 113.388C84.133 117.66 39.529 118.948 27.141 113.559C22.69 111.621 31.04 108.934 33.667 108.367V108.367C34.8656 108.107 34.9836 107.127 33.7597 107.204C25.0061 107.753 9.11999 115.245 24.227 117.697C74.048 125.773 115.044 114.06 102.123 108.229L-nan -nanL-nan -nanZM-nan -nanL49.912 70.294C49.912 70.294 27.226 75.683 41.879 77.642C48.067 78.47 60.397 78.28 71.89 77.316C76.4164 76.9357 80.9505 76.3471 84.433 75.8395C85.2899 75.7146 85.859 77.3188 85.1393 77.8003V77.8003C85.0702 77.8464 84.9606 77.9051 84.8802 77.9261C61.8045 83.9463 17.477 81.1224 30.268 74.937C41.1 69.698 49.912 70.294 49.912 70.294L-nan -nanL-nan -nanZM-nan -nanL90.609 93.041C114.03 80.874 103.2 69.181 95.641 70.756C95.5713 70.7705 95.5031 70.785 95.4363 70.7993C94.6553 70.9672 94.2109 70.1993 94.964 69.933V69.933C109.847 64.7027 121.307 85.241 90.5802 93.541C90.3652 93.599 90.3018 93.5094 90.4369 93.3324C90.5071 93.2404 90.5723 93.1387 90.609 93.041L-nan -nanL-nan -nanZ" fill="#0074BD"/>
<path d="M75.1709 15.747C77.0257 12.1297 80.2608 11.3614 79.1976 15.285C77.786 20.4949 73.6903 27.0097 64.188 34.51C54.3161 42.3068 52.9653 48.4705 54.7097 53.9477C56.0194 58.0599 53.7382 60.0565 51.2595 56.5235C47.4977 51.1617 46.2624 46.1074 49.493 41.254C55.6933 31.9449 69.8556 26.1129 75.1709 15.747Z" fill="#EA2D2E"/>
<path d="M-nan -nanL52.214 126.021C64.8476 126.829 81.2877 126.476 93.4086 124.123C96.808 123.463 94.8572 121.176 91.454 121.816V121.816C74.2585 125.053 53.4629 125.051 39.2301 123.348C36.7783 123.054 36.5753 123.715 38.9767 124.29C41.6439 124.929 45.8115 125.609 52.214 126.021L-nan -nanL-nan -nanZ" fill="#0074BD"/>
</svg>
