<svg width="128" height="129" viewBox="0 0 128 129" fill="none" xmlns="http://www.w3.org/2000/svg">
<rect y="0.680145" width="128" height="128" rx="4" fill="white"/>
<path d="M56.484 55.7781C56.854 56.0481 57.304 56.2081 57.794 56.2081C58.994 56.2081 59.974 55.2581 60.024 54.0781L60.074 54.0481L60.824 40.7881C59.924 40.8981 59.024 41.0481 58.124 41.2481C53.194 42.3681 48.924 44.7981 45.584 48.0781L56.454 55.7881L56.484 55.7781ZM55.034 75.2081C54.9072 74.6468 54.5672 74.1567 54.0858 73.8413C53.6044 73.526 53.0193 73.4101 52.454 73.5181L52.434 73.4881L39.384 75.6981C41.3421 81.1201 45.037 85.7431 49.894 88.8481L54.954 76.6281L54.914 76.5781C55.084 76.1581 55.144 75.6881 55.034 75.2081ZM50.694 65.7981C51.134 65.6781 51.544 65.4181 51.854 65.0381C52.604 64.0981 52.474 62.7481 51.574 61.9681L51.584 61.9181L41.654 53.0381C38.626 57.9687 37.3243 63.7664 37.954 69.5181L50.684 65.8481L50.694 65.7981ZM60.334 69.6981L63.994 71.4581L67.654 69.7081L68.554 65.7581L66.024 62.5981H61.964L59.424 65.7581L60.334 69.6981ZM67.934 54.0281C67.954 54.4881 68.114 54.9381 68.424 55.3181C69.174 56.2581 70.524 56.4281 71.484 55.7281L71.524 55.7481L82.324 48.0881C78.244 44.0981 72.924 41.4881 67.174 40.7881L67.924 54.0281H67.934ZM75.514 73.4581C75.344 73.4281 75.174 73.4081 75.004 73.4181C74.714 73.4281 74.424 73.5081 74.154 73.6381C73.6362 73.8878 73.2348 74.3278 73.0336 74.8662C72.8323 75.4047 72.8468 76.0001 73.074 76.5281L73.054 76.5481L78.164 88.8881C83.094 85.7481 86.774 81.0581 88.704 75.6481L75.544 73.4181L75.514 73.4581ZM65.954 79.9981C65.7553 79.6336 65.4595 79.3313 65.0994 79.1248C64.7393 78.9183 64.3289 78.8156 63.914 78.8281C63.144 78.8581 62.414 79.2881 62.024 80.0081H62.014L55.594 91.6081C60.1908 93.171 65.1317 93.4237 69.864 92.3381C70.744 92.1381 71.604 91.8981 72.434 91.6181L66.004 79.9881H65.954V79.9981Z" fill="#486BB3"/>
<path d="M124.544 77.4681L114.104 32.1381C113.832 30.9624 113.297 29.8633 112.54 28.923C111.784 27.9828 110.824 27.2256 109.734 26.7081L67.494 6.52814C66.2722 5.94709 64.9251 5.67904 63.574 5.74814C62.4993 5.80096 61.4457 6.06606 60.474 6.52814L18.234 26.7081C17.1455 27.2282 16.1876 27.9862 15.4313 28.926C14.6749 29.8658 14.1393 30.9636 13.864 32.1381L3.454 77.4781C3.21218 78.5227 3.18499 79.6056 3.37407 80.661C3.56316 81.7164 3.96458 82.7225 4.554 83.6181C4.694 83.8382 4.854 84.0481 5.014 84.2581L34.254 120.608C35.0147 121.551 35.9775 122.311 37.0714 122.832C38.1654 123.353 39.3624 123.622 40.574 123.618L87.464 123.608C89.924 123.608 92.244 122.498 93.784 120.598L123.014 84.2381C123.762 83.2977 124.289 82.2004 124.553 81.0282C124.818 79.8559 124.815 78.639 124.544 77.4681ZM108.474 76.9181C108.164 78.2681 106.714 79.0881 105.214 78.7681C105.204 78.7681 105.184 78.7682 105.174 78.7581C105.154 78.7581 105.144 78.7481 105.124 78.7381C104.914 78.6881 104.654 78.6481 104.474 78.5981C103.614 78.3681 102.984 78.0182 102.204 77.7181C100.534 77.1181 99.144 76.6181 97.794 76.4181C97.104 76.3681 96.754 76.6881 96.374 76.9381C96.194 76.8981 95.624 76.7981 95.294 76.7481C92.874 84.3581 87.714 90.9581 80.724 95.0781C80.844 95.3681 81.054 95.9881 81.144 96.0981C80.984 96.5281 80.744 96.9281 80.954 97.5881C81.444 98.8581 82.234 100.108 83.194 101.598C83.654 102.288 84.134 102.818 84.554 103.618C84.654 103.808 84.784 104.098 84.884 104.298C85.534 105.688 85.054 107.288 83.804 107.888C82.544 108.498 80.984 107.858 80.304 106.458C80.204 106.258 80.074 105.998 79.994 105.808C79.634 104.988 79.514 104.288 79.264 103.488C78.694 101.808 78.214 100.418 77.534 99.2381C77.144 98.6681 76.674 98.5981 76.244 98.4581C76.164 98.3181 75.864 97.7681 75.704 97.4881C74.304 98.0181 72.864 98.4581 71.364 98.7981C64.804 100.288 58.234 99.6881 52.374 97.4281L51.804 98.4681C51.374 98.5781 50.964 98.6981 50.714 98.9981C49.794 100.098 49.424 101.858 48.754 103.538C48.504 104.328 48.384 105.038 48.024 105.858C47.944 106.048 47.804 106.308 47.714 106.498V106.508L47.704 106.518C47.034 107.908 45.474 108.548 44.214 107.948C42.964 107.348 42.494 105.748 43.134 104.358C43.234 104.158 43.354 103.868 43.454 103.678C43.874 102.888 44.344 102.348 44.814 101.658C45.774 100.158 46.614 98.8181 47.104 97.5481C47.224 97.1281 47.044 96.5481 46.884 96.1181L47.344 95.0181C40.614 91.0281 35.304 84.6781 32.764 76.8081L31.664 76.9981C31.364 76.8281 30.774 76.4381 30.214 76.4881C28.864 76.6881 27.474 77.1881 25.804 77.7881C25.024 78.0882 24.404 78.4281 23.534 78.6581C23.354 78.7081 23.094 78.7581 22.884 78.8081C22.864 78.8081 22.854 78.8181 22.834 78.8281C22.824 78.8281 22.804 78.8281 22.794 78.8381C21.294 79.1581 19.844 78.3381 19.534 76.9881C19.224 75.6381 20.184 74.2681 21.674 73.9081C21.684 73.9081 21.704 73.8981 21.714 73.8981C21.724 73.8981 21.724 73.8981 21.734 73.8881C21.944 73.8381 22.214 73.7681 22.414 73.7281C23.294 73.5581 24.014 73.5981 24.844 73.5381C26.614 73.3481 28.074 73.1982 29.374 72.7881C29.784 72.6181 30.184 72.0481 30.464 71.6881L31.524 71.3781C30.334 63.1581 32.344 55.0981 36.684 48.5681L35.874 47.8481C35.824 47.5281 35.754 46.8081 35.364 46.3881C34.374 45.4581 33.114 44.6781 31.604 43.7481C30.884 43.3281 30.224 43.0581 29.504 42.5181C29.354 42.4081 29.144 42.2281 28.984 42.0981C28.974 42.0881 28.954 42.0781 28.944 42.0681C27.734 41.0981 27.454 39.4281 28.324 38.3381C28.814 37.7281 29.564 37.4181 30.334 37.4481C30.934 37.4681 31.564 37.6881 32.094 38.1081C32.264 38.2481 32.504 38.4281 32.654 38.5581C33.334 39.1381 33.744 39.7181 34.314 40.3281C35.564 41.5981 36.594 42.6481 37.724 43.4081C38.314 43.7581 38.774 43.6181 39.224 43.5581C39.374 43.6681 39.854 44.0181 40.134 44.2081C44.434 39.6381 50.094 36.2581 56.654 34.7681C58.184 34.4181 59.704 34.1881 61.224 34.0681L61.284 32.9981C61.624 32.6681 61.994 32.2081 62.104 31.6881C62.214 30.3281 62.034 28.8681 61.824 27.0981C61.704 26.2781 61.514 25.5881 61.474 24.6981C61.464 24.5181 61.474 24.2581 61.484 24.0481C61.484 24.0281 61.474 23.9981 61.474 23.9781C61.474 22.4281 62.604 21.1681 64.004 21.1681C65.404 21.1681 66.534 22.4281 66.534 23.9781C66.534 24.1981 66.544 24.4981 66.544 24.6981C66.514 25.5881 66.314 26.2781 66.194 27.0981C65.984 28.8581 65.794 30.3281 65.904 31.6881C66.004 32.3681 66.404 32.6381 66.734 32.9481C66.744 33.1281 66.774 33.7381 66.794 34.0781C74.834 34.7881 82.294 38.4681 87.784 44.2181L88.744 43.5281C89.074 43.5481 89.784 43.6481 90.274 43.3581C91.404 42.5981 92.434 41.5381 93.684 40.2781C94.254 39.6681 94.674 39.0981 95.354 38.5081C95.504 38.3781 95.744 38.1981 95.914 38.0581C97.124 37.0881 98.814 37.1981 99.684 38.2881C100.554 39.3781 100.274 41.0481 99.064 42.0181C98.894 42.1581 98.674 42.3481 98.504 42.4681C97.784 42.9981 97.124 43.2681 96.404 43.6981C94.894 44.6281 93.634 45.4081 92.644 46.3381C92.174 46.8381 92.214 47.3181 92.164 47.7681C92.024 47.8981 91.534 48.3381 91.264 48.5681C93.5012 51.8971 95.1078 55.6087 96.004 59.5181C96.924 63.5081 97.064 67.4881 96.534 71.3181L97.554 71.6181C97.734 71.8782 98.114 72.5081 98.644 72.7181C99.944 73.1282 101.404 73.2781 103.174 73.4681C104.004 73.5381 104.724 73.4981 105.604 73.6581C105.814 73.6981 106.124 73.7781 106.334 73.8281C107.834 74.1982 108.784 75.5681 108.474 76.9181Z" fill="#486BB3"/>
<path d="M86.274 53.0381L76.394 61.8781L76.404 61.9081C76.064 62.2081 75.804 62.6081 75.694 63.0881C75.424 64.2581 76.134 65.4181 77.274 65.7381L77.284 65.7881L90.074 69.4681C90.344 66.7081 90.184 63.8481 89.524 60.9881C88.864 58.0981 87.754 55.4281 86.274 53.0381Z" fill="#486BB3"/>
</svg>
