<svg width="128" height="129" viewBox="0 0 128 129" fill="none" xmlns="http://www.w3.org/2000/svg">
<rect y="0.680176" width="128" height="128" rx="4" fill="white"/>
<g clip-path="url(#clip0_0_1958)">
<path d="M32.3744 91.0802L35.984 105.019H33.2608L30.848 94.981L26.3296 105.019H24.032L19.536 95.0482L17.0656 105.029H14.4L17.9712 91.0802H20.336L25.2032 101.874L30.0384 91.0802H32.3744Z" fill="#231F20"/>
<path d="M46.256 96.469V94.8466H48.88V105.019H46.256V103.368C45.5584 104.549 44.1312 105.224 42.3936 105.224C38.7648 105.224 36.736 102.664 36.736 99.7202C36.736 96.8818 38.656 94.6002 42.0064 94.6002C43.9136 94.6162 45.4976 95.2722 46.256 96.469ZM39.536 99.8674C39.536 101.739 40.7136 103.339 42.992 103.339C45.1936 103.339 46.3904 101.778 46.3904 99.925C46.3904 98.0722 45.1552 96.4882 42.8704 96.4882C40.672 96.4882 39.536 98.069 39.536 99.8674Z" fill="#231F20"/>
<path d="M54.8 105.019H52.176V94.8466H54.8V97.125C55.0985 96.3931 55.6056 95.765 56.2582 95.319C56.9108 94.8729 57.6801 94.6285 58.4704 94.6162C59.0282 94.6083 59.5829 94.6993 60.1088 94.885L59.5488 96.805C59.0955 96.6845 58.6291 96.62 58.16 96.613C56.2688 96.613 54.8 98.0402 54.8 100.133V105.019Z" fill="#231F20"/>
<path d="M61.4208 92.1682C61.4161 91.9835 61.4497 91.7998 61.5195 91.6287C61.5893 91.4577 61.6938 91.3029 61.8264 91.1742C61.959 91.0456 62.1168 90.9458 62.2899 90.8811C62.4629 90.8164 62.6475 90.7883 62.832 90.7986C63.0195 90.7924 63.2062 90.8245 63.3808 90.8929C63.5555 90.9612 63.7144 91.0644 63.8479 91.1961C63.9814 91.3278 64.0867 91.4853 64.1575 91.6591C64.2282 91.8328 64.2628 92.019 64.2592 92.2066C64.2633 92.3918 64.2286 92.5758 64.1573 92.7468C64.0861 92.9178 63.9798 93.072 63.8454 93.1994C63.711 93.3269 63.5514 93.4249 63.3769 93.487C63.2023 93.5491 63.0167 93.574 62.832 93.5602C62.6462 93.5682 62.4607 93.5378 62.2872 93.4709C62.1136 93.404 61.9557 93.3021 61.8233 93.1715C61.6908 93.0409 61.5868 92.8844 61.5175 92.7117C61.4483 92.5391 61.4154 92.3541 61.4208 92.1682ZM61.536 94.853H64.176V102.28C64.176 102.741 64.272 103.071 64.6592 103.071C64.828 103.066 64.9962 103.047 65.1616 103.013L65.5648 104.933C65.0113 105.149 64.4215 105.258 63.8272 105.253C62.7264 105.253 61.5488 104.933 61.5488 102.434L61.536 94.853Z" fill="#231F20"/>
<path d="M75.9008 96.469V94.8466H78.5248V105.019H75.9008V103.368C75.2032 104.549 73.776 105.224 72.0384 105.224C68.4096 105.224 66.3808 102.664 66.3808 99.7202C66.3808 96.8818 68.3008 94.6002 71.6512 94.6002C73.5648 94.6162 75.1456 95.2722 75.9008 96.469ZM69.1808 99.8674C69.1808 101.739 70.3584 103.339 72.6368 103.339C74.8384 103.339 76.0352 101.778 76.0352 99.925C76.0352 98.0722 74.8 96.4882 72.5152 96.4882C70.32 96.4882 69.1808 98.069 69.1808 99.8674Z" fill="#231F20"/>
<path d="M82.5568 91.0802H88.8512C94.1408 91.0802 96.7872 93.9986 96.7488 98.0498C96.7872 102.261 93.8688 105.019 89.3152 105.019H82.5568V91.0802ZM84.2944 92.3186V103.803H89.0944C93.3024 103.803 94.9056 100.965 94.9056 98.0114C94.9056 94.6738 92.896 92.3186 89.0944 92.3186H84.2944Z" fill="#231F20"/>
<path d="M107.478 105.019H99.4784V91.0802H106.678C109.44 91.0802 112.064 91.6018 112.026 94.693C112.026 96.8722 110.675 97.4706 109.245 97.7042C111.274 97.877 112.49 99.1698 112.49 101.256C112.518 104.383 109.776 105.019 107.478 105.019ZM106.88 97.1634C109.642 97.1634 110.259 96.101 110.259 94.7506C110.259 92.7218 109.024 92.2578 106.88 92.2578H101.149V97.1634H106.88ZM106.957 98.341H101.149V103.842H107.21C108.909 103.842 110.704 103.282 110.704 101.141C110.704 98.6674 108.637 98.341 106.957 98.341Z" fill="#231F20"/>
<path d="M113.136 24.6642C112.883 24.4489 112.559 24.3349 112.227 24.3442C111.318 24.3442 110.147 24.9586 109.52 25.3042L109.267 25.4322C108.21 25.9445 107.059 26.2342 105.885 26.2834C104.682 26.3218 103.645 26.3922 102.294 26.5298C94.2945 27.3554 90.7264 33.4866 87.2896 39.4162C85.4208 42.6418 83.4881 45.9762 80.8385 48.5586C80.2884 49.0894 79.7048 49.5843 79.0913 50.0402C76.3489 52.085 72.9056 53.5282 70.2144 54.5586C67.632 55.5442 64.8193 56.4306 62.0961 57.2882C59.6065 58.0722 57.2513 58.8114 55.0881 59.6178C54.1121 59.9794 53.2833 60.2578 52.5505 60.501C50.5825 61.141 49.1585 61.6306 47.0849 63.061C46.2753 63.6146 45.4625 64.213 44.9089 64.661C43.2604 65.9755 41.8023 67.5123 40.5761 69.2274C39.5202 70.8112 38.3007 72.2795 36.9377 73.6082C36.5025 74.037 35.7217 74.2482 34.5601 74.2482C33.1937 74.2482 31.5425 73.9666 29.7889 73.669C28.0353 73.3714 26.1217 73.029 24.5217 73.029C23.2193 73.029 22.2273 73.2402 21.4817 73.669C21.4817 73.669 20.2337 74.3986 19.7025 75.3426L20.2209 75.5762C21.0252 76.0128 21.7705 76.5505 22.4385 77.1762C23.1302 77.8209 23.9038 78.3717 24.7393 78.8146C25.0083 78.9169 25.2526 79.075 25.4561 79.2786C25.2353 79.5986 24.9153 80.0114 24.5793 80.453C22.7329 82.869 21.6577 84.3954 22.2753 85.2274C22.5709 85.3821 22.9018 85.4571 23.2353 85.445C27.2641 85.445 29.4241 84.3986 32.1633 83.0738C32.9537 82.6898 33.7633 82.293 34.7233 81.8898C36.3233 81.1954 38.0449 80.0882 39.8689 78.917C42.2849 77.365 44.7841 75.7586 47.2033 74.981C49.1967 74.3731 51.2731 74.0816 53.3569 74.117C55.9169 74.117 58.6113 74.4594 61.2096 74.7922C63.1488 75.0418 65.1521 75.2978 67.1201 75.4322C67.8849 75.477 68.5921 75.4994 69.2833 75.4994C70.2036 75.5019 71.1234 75.4538 72.0385 75.3554L72.2561 75.2786C73.6385 74.4306 74.2848 72.6098 74.9088 70.8498C75.312 69.717 75.6512 68.6994 76.1888 68.053C76.221 68.0206 76.2564 67.9916 76.2944 67.9666C76.3196 67.9525 76.3488 67.9475 76.3773 67.9521C76.4058 67.9567 76.4318 67.9709 76.4513 67.9922C76.4569 68.0088 76.4569 68.0268 76.4513 68.0434C76.1313 74.9266 73.3569 79.2946 70.5569 83.1794L68.6561 85.173C68.6561 85.173 71.2736 85.173 72.7648 84.597C78.2048 82.9714 82.3137 79.3874 85.3025 73.6722C86.0391 72.2053 86.6971 70.7002 87.2736 69.1634C87.3248 69.0354 87.7985 68.7986 87.7505 69.461C87.7505 69.6562 87.7248 69.8738 87.7088 70.101C87.7088 70.2354 87.6897 70.373 87.6833 70.5106C87.6033 71.4706 87.3633 73.4994 87.3633 73.4994L89.0433 72.6002C93.0945 70.0402 96.2177 64.8754 98.5857 56.8402C99.5745 53.493 100.294 50.1682 100.931 47.2402C101.693 43.7202 102.349 40.7026 103.101 39.5314C104.282 37.6946 106.083 36.453 107.827 35.2466C108.067 35.0834 108.304 34.9266 108.538 34.7538C110.733 33.2146 112.912 31.4386 113.389 28.1266V28.053C113.754 25.5826 113.456 24.9682 113.136 24.6642Z" fill="#231F20"/>
</g>
<defs>
<clipPath id="clip0_0_1958">
<rect width="99.1616" height="80.8704" fill="white" transform="translate(14.4 24.3602)"/>
</clipPath>
</defs>
</svg>
