<svg width="128" height="128" viewBox="0 0 128 128" fill="none" xmlns="http://www.w3.org/2000/svg">
<rect width="128" height="128" rx="4" fill="white"/>
<path d="M63.877 125.392C31.206 125.392 3.507 97.798 3.25 64.923C3.19395 56.992 4.71243 49.1288 7.71744 41.7889C10.7225 34.4491 15.1542 27.7786 20.756 22.164C26.3948 16.3904 33.1242 11.7942 40.5537 8.64248C47.9832 5.49071 55.9647 3.84606 64.035 3.80401C71.9603 3.79729 79.8086 5.35864 87.1279 8.39812C94.4472 11.4376 101.093 15.8951 106.682 21.514C112.364 27.0535 116.894 33.6626 120.01 40.9605C123.126 48.2585 124.767 56.1009 124.839 64.036C124.99 97.64 97.975 125.057 64.37 125.399H63.877V125.392ZM64.067 6.98601C56.418 7.03136 48.8542 8.59519 41.8143 11.5867C34.7744 14.5783 28.3987 18.938 23.057 24.413C17.7444 29.7251 13.5389 36.0388 10.6842 42.9881C7.82956 49.9375 6.38254 57.3843 6.427 64.897C6.663 96.056 32.922 122.183 63.857 122.183H64.271C96.134 121.893 121.775 95.917 121.656 64.055C121.585 56.5382 120.027 49.1098 117.072 42.1978C114.117 35.2859 109.824 29.027 104.439 23.782C99.1565 18.4496 92.8678 14.2191 85.9377 11.3359C79.0076 8.45264 71.574 6.97411 64.068 6.98601H64.067Z" fill="#0B5A9D"/>
<path d="M16.89 82.383V46.865H25.53V50.048H20.947V79.266H25.531V82.449L16.889 82.383H16.89ZM46.213 64.272C46.213 70.75 42.28 74.439 36.953 74.439C31.626 74.439 28.076 70.283 28.076 64.608C28.076 58.669 31.798 54.487 37.243 54.487C42.688 54.487 46.213 58.847 46.213 64.272ZM31.798 64.562C31.798 68.494 33.771 71.612 37.158 71.612C40.545 71.612 42.491 68.429 42.491 64.417C42.491 60.774 40.695 57.334 37.157 57.334C33.619 57.334 31.765 60.662 31.765 64.641L31.798 64.561V64.562ZM49.205 55.158C50.895 54.868 52.612 54.724 54.328 54.73C56.2565 54.5425 58.1949 54.9706 59.865 55.953C60.4916 56.3204 61.0082 56.8491 61.361 57.484C61.7138 58.119 61.89 58.8369 61.871 59.563C61.8488 60.5067 61.529 61.4192 60.9574 62.1704C60.3858 62.9216 59.5916 63.473 58.688 63.746C60.957 64.206 62.588 66.206 62.588 68.521C62.5998 69.2818 62.4384 70.0353 62.116 70.7245C61.7936 71.4137 61.3186 72.0205 60.727 72.499C59.359 73.709 57.084 74.295 53.565 74.295C52.1187 74.3016 50.6734 74.2157 49.238 74.038L49.205 55.158ZM52.704 62.78H54.499C56.932 62.78 58.3 61.635 58.3 59.998C58.3 58.36 56.932 57.354 54.69 57.354C54.0181 57.3333 53.3459 57.3819 52.684 57.499L52.704 62.779V62.78ZM52.704 71.658C53.322 71.723 53.947 71.75 54.564 71.736C56.827 71.736 58.826 70.875 58.826 68.554C58.826 66.233 56.886 65.371 54.453 65.371H52.703V71.658H52.704ZM69.54 54.901H73.057V67.455C73.057 72.789 70.48 74.571 66.692 74.571C65.68 74.5647 64.6759 74.3934 63.719 74.064L64.147 71.23C64.85 71.454 65.587 71.565 66.33 71.579C68.336 71.579 69.513 70.658 69.513 67.317L69.539 54.901H69.54ZM83.067 65.357V67.791H75.747V65.357H83.067V65.357ZM100.158 73.63C98.573 74.262 96.877 74.551 95.18 74.492C89.051 74.492 85.329 70.658 85.329 64.785C85.046 59.432 89.156 54.862 94.509 54.579C94.884 54.559 95.266 54.559 95.64 54.585C97.2757 54.5171 98.9063 54.8114 100.415 55.447L99.632 58.248C98.4342 57.7407 97.1448 57.4854 95.844 57.498C91.912 57.498 89.084 59.965 89.084 64.614C89.084 68.849 91.583 71.585 95.818 71.585C97.1311 71.6052 98.4349 71.3613 99.652 70.868L100.158 73.63V73.63ZM111.2 46.766V82.376H102.559V79.194H107.142V49.949H102.559V46.766H111.199H111.2Z" fill="#0B5A9D"/>
</svg>
