<svg width="128" height="129" viewBox="0 0 128 129" fill="none" xmlns="http://www.w3.org/2000/svg">
<rect y="0.680176" width="128" height="128" rx="4" fill="white"/>
<path d="M112.871 67.2822C121.875 72.5592 127.926 82.3092 127.945 93.4732C127.977 110.278 114.328 123.926 97.465 123.953C80.602 123.985 66.906 110.383 66.875 93.5782C66.855 82.4142 72.871 72.6452 81.859 67.3322L90.633 82.1102C90.852 82.4802 90.727 82.9572 90.371 83.2002C87.051 85.4502 84.875 89.2462 84.883 93.5472C84.895 100.442 90.516 106.024 97.433 106.008C104.352 105.996 109.949 100.398 109.937 93.5042C109.93 89.2042 107.742 85.4142 104.414 83.1762C104.059 82.9342 103.93 82.4572 104.148 82.0862L112.871 67.2822Z" fill="#128DFF"/>
<path d="M45.477 67.1022C40.9207 64.559 35.788 63.2276 30.57 63.2352C13.703 63.2352 0.0349731 76.8602 0.0349731 93.6652C0.0349731 110.469 13.703 124.095 30.57 124.095C47.516 124.095 61.52 109.758 61.094 92.8832H43.906C43.453 92.8832 43.098 93.2662 43.094 93.7152C43.051 100.438 37.422 106.149 30.57 106.149C23.648 106.149 18.043 100.559 18.043 93.6642C18.043 86.7702 23.648 81.1802 30.57 81.1802C32.379 81.1802 34.102 81.5632 35.656 82.2542C36.039 82.4222 36.492 82.2942 36.703 81.9382L45.477 67.1022Z" fill="#8BDA67"/>
<path d="M47.945 62.3282C38.953 57.0352 32.918 47.2742 32.918 36.1102C32.918 19.3052 46.59 5.68018 63.453 5.68018C80.316 5.68018 93.988 19.3052 93.988 36.1102C93.988 47.2742 87.953 57.0352 78.961 62.3282L70.21 47.5402C69.991 47.1702 70.116 46.6932 70.476 46.4502C73.796 44.2042 75.979 40.4112 75.979 36.1102C75.979 29.2162 70.37 23.6262 63.452 23.6262C56.534 23.6262 50.925 29.2162 50.925 36.1112C50.925 40.4112 53.108 44.2042 56.429 46.4512C56.789 46.6932 56.913 47.1692 56.694 47.5412L47.945 62.3282Z" fill="#FF2A44"/>
</svg>
