<svg width="128" height="129" viewBox="0 0 128 129" fill="none" xmlns="http://www.w3.org/2000/svg">
<path d="M64 33.7191C30.26 33.7191 2.906 47.5811 2.906 64.6801C2.906 81.7791 30.26 95.6411 64 95.6411C97.74 95.6411 125.094 81.7791 125.094 64.6801C125.094 47.5811 97.74 33.7191 64 33.7191ZM48.103 70.7121C46.645 72.0761 45.026 72.6391 43.243 73.2191C41.46 73.8001 39.191 73.6801 36.432 73.6801H30.179L28.446 83.6801H21.145L27.66 49.6801H41.7C45.924 49.6801 49.005 50.8951 50.942 53.1121C52.879 55.3291 53.461 58.4761 52.689 62.4491C52.37 64.0861 51.833 65.6081 51.075 66.9641C50.2895 68.3633 49.2863 69.6284 48.103 70.7121V70.7121ZM69.414 73.6801L72.295 59.2601C72.623 57.5721 72.503 56.3181 71.934 55.7051C71.364 55.0911 70.152 54.6801 68.299 54.6801H62.509L58.778 73.6801H51.534L58.049 40.6801H65.293L63.561 49.6801H70.014C74.075 49.6801 76.875 50.4951 78.416 51.9111C79.957 53.3271 80.419 55.2671 79.803 58.4391L76.772 73.6801H69.414ZM109.673 62.5021C109.355 64.1391 108.817 65.6351 108.06 66.9901C107.302 68.3471 106.312 69.5881 105.089 70.7121C103.631 72.0761 102.011 72.6391 100.229 73.2191C98.447 73.8001 96.176 73.6801 93.417 73.6801H87.164L85.432 83.6801H78.131L84.645 49.6801H98.686C102.91 49.6801 105.991 50.8951 107.927 53.1121C109.862 55.3291 110.445 58.5301 109.673 62.5021V62.5021ZM95.919 54.6801H90.918L88.191 68.6801H92.633C95.575 68.6801 97.769 68.3901 99.209 67.2801C100.651 66.1721 101.622 64.4521 102.127 61.8591C102.611 59.3681 102.391 57.4251 101.467 56.4011C100.542 55.3771 98.693 54.6801 95.919 54.6801V54.6801ZM38.934 54.6801H33.932L31.205 68.6801H35.646C38.589 68.6801 40.782 68.3901 42.223 67.2801C43.664 66.1721 44.636 64.4521 45.14 61.8591C45.624 59.3681 45.404 57.4251 44.48 56.4011C43.556 55.3771 41.708 54.6801 38.934 54.6801Z" fill="#6181B6"/>
</svg>
