<svg width="128" height="129" viewBox="0 0 128 129" fill="none" xmlns="http://www.w3.org/2000/svg">
<rect y="0.680176" width="128" height="128" rx="4" fill="white"/>
<path d="M100.1 38.9802L90.9 48.1802C106 63.2802 106 87.5802 90.9 102.48C75.8 117.58 51.5 117.58 36.6 102.48C21.5 87.3802 21.5 63.0802 36.6 48.1802L60.6 24.1802L64 20.7802V2.68018L27.8 38.8802C7.69998 58.9802 7.69998 91.4802 27.8 111.68C47.9 131.88 80.4 131.78 100.2 111.68C120.3 91.4802 120.3 59.1802 100.1 38.9802V38.9802Z" fill="#EE4C2C"/>
<path d="M88.7693 30.1737C88.8378 26.4742 85.8943 23.4195 82.1947 23.351C78.4951 23.2825 75.4405 26.226 75.372 29.9256C75.3035 33.6252 78.247 36.6798 81.9466 36.7483C85.6461 36.8168 88.7008 33.8733 88.7693 30.1737Z" fill="#EE4C2C"/>
</svg>
