<svg width="128" height="128" viewBox="0 0 128 128" fill="none" xmlns="http://www.w3.org/2000/svg">
<rect width="128" height="128" rx="4" fill="white"/>
<path d="M88.46 10.2C86.464 10.1329 84.3747 10.4809 82.28 11.16C78.0905 12.5182 73.7003 15.1651 69.195 18.83C67.4293 20.2662 65.6476 21.908 63.86 23.65C62.1117 21.9523 60.3666 20.3495 58.64 18.945C54.1382 15.2831 49.76 12.6402 45.58 11.285C41.4 9.92981 37.2409 9.88782 33.825 11.86C30.4091 13.8322 28.3664 17.4524 27.45 21.75C26.5336 26.0476 26.6295 31.1654 27.55 36.895C27.8697 38.8851 28.3306 40.973 28.85 43.1C26.8981 43.6915 25.0027 44.3135 23.245 45C17.9404 47.0718 13.5512 49.5505 10.355 52.5C7.15875 55.4495 5.09497 59.0292 5.09497 62.96C5.09497 66.8907 7.15875 70.4655 10.355 73.415C13.5512 76.3645 17.9404 78.8481 23.245 80.92C25.1245 81.6541 27.1593 82.3151 29.26 82.94C28.5044 85.7633 27.8922 88.5029 27.475 91.1C26.5538 96.8342 26.4565 101.953 27.375 106.26C28.2934 110.567 30.3372 114.208 33.77 116.19C37.2028 118.172 41.3805 118.123 45.57 116.765C49.7595 115.407 54.1446 112.765 58.65 109.1C60.3994 107.677 62.1689 106.054 63.94 104.33C65.7194 106.063 67.4978 107.696 69.255 109.125C73.7567 112.787 78.14 115.43 82.32 116.785C86.5 118.14 90.6541 118.182 94.07 116.21C97.4859 114.238 99.5286 110.618 100.445 106.32C101.361 102.022 101.26 96.9046 100.34 91.175C99.9216 88.5709 99.3091 85.8271 98.55 82.995C100.72 82.3548 102.819 81.6761 104.755 80.92C110.06 78.8481 114.449 76.3645 117.645 73.415C120.841 70.4655 122.905 66.8907 122.905 62.96C122.905 59.0292 120.841 55.4495 117.645 52.5C114.449 49.5505 110.06 47.0718 104.755 45C102.972 44.3036 101.047 43.6736 99.065 43.075C99.5885 40.935 100.053 38.8321 100.375 36.83C101.296 31.0958 101.393 25.9723 100.475 21.665C99.5565 17.3577 97.5077 13.7219 94.075 11.74C92.3586 10.749 90.456 10.2671 88.46 10.2ZM88.225 15.41C89.4775 15.4442 90.546 15.7423 91.46 16.27C93.288 17.3254 94.6391 19.3794 95.36 22.76C96.0808 26.1405 96.0559 30.708 95.205 36.005C94.9136 37.8186 94.4906 39.7406 94.01 41.71C88.7749 40.4501 83.0386 39.5147 76.925 38.965C73.8537 34.7097 70.6968 30.8387 67.515 27.4C69.1972 25.7578 70.8686 24.222 72.5 22.895C76.6618 19.5096 80.6019 17.206 83.89 16.14C85.534 15.607 86.9725 15.3757 88.225 15.41ZM39.645 15.425C40.9047 15.3898 42.3462 15.6204 43.995 16.155C47.2925 17.2241 51.2395 19.5266 55.405 22.915C57.0032 24.2151 58.6379 25.7174 60.285 27.32C57.0802 30.786 53.9012 34.6975 50.81 38.99C44.7181 39.5498 39.0022 40.4941 33.79 41.76C33.3124 39.8 32.895 37.8857 32.605 36.08C31.7533 30.7784 31.732 26.2053 32.455 22.815C33.1779 19.4247 34.5401 17.3601 36.385 16.295C37.3074 15.7624 38.3852 15.4602 39.645 15.425ZM63.94 31.085C66.0251 33.3542 68.1115 35.8382 70.18 38.51C68.1473 38.4252 66.0897 38.375 64 38.375C61.8687 38.375 59.7719 38.4269 57.7 38.515C59.7692 35.8408 61.8541 33.3561 63.94 31.085ZM64 43.545C67.4813 43.545 70.8745 43.688 74.175 43.93C76.446 47.1918 78.6653 50.6523 80.78 54.315C82.6381 57.5333 84.3195 60.7466 85.85 63.92C84.3034 67.1354 82.5937 70.3922 80.71 73.655C79.0518 76.5271 77.3201 79.2549 75.56 81.885C71.8318 82.1966 67.9687 82.37 64 82.37C59.9356 82.37 55.9858 82.1863 52.175 81.86C50.4441 79.2677 48.7417 76.5762 47.11 73.75C45.2305 70.4947 43.5291 67.2488 41.985 64.04C43.5356 60.813 45.2446 57.5441 47.135 54.27C49.2385 50.6265 51.4514 47.186 53.71 43.94C57.046 43.6926 60.4786 43.545 64 43.545ZM80.77 44.57C84.9882 45.0965 88.9488 45.8279 92.635 46.705C91.5408 50.2919 90.193 54.0385 88.56 57.905C87.4997 55.861 86.4015 53.8101 85.215 51.755C83.7778 49.2658 82.2836 46.8888 80.77 44.57ZM46.96 44.61C45.4775 46.8866 44.0188 49.2149 42.61 51.655C41.4082 53.7365 40.2873 55.815 39.215 57.885C37.596 54.0418 36.2564 50.3165 35.17 46.75C38.8301 45.871 42.7693 45.1425 46.96 44.61ZM97.7 48.065C99.5147 48.6141 101.267 49.1871 102.875 49.815C107.765 51.7249 111.633 53.9865 114.14 56.3C116.647 58.6134 117.735 60.8197 117.735 62.96C117.735 65.1003 116.647 67.3065 114.14 69.62C111.633 71.9334 107.765 74.1951 102.875 76.105C101.088 76.8027 99.1256 77.4355 97.085 78.035C95.6293 73.5325 93.7713 68.8352 91.56 64.04C94.1025 58.5346 96.1564 53.1668 97.7 48.065ZM30.215 48.09C31.7409 53.1407 33.7686 58.4556 36.275 63.905C34.0492 68.7282 32.182 73.4522 30.72 77.98C28.7512 77.3963 26.8549 76.7807 25.125 76.105C20.235 74.1951 16.3669 71.9334 13.86 69.62C11.353 67.3065 10.265 65.1003 10.265 62.96C10.265 60.8197 11.353 58.6134 13.86 56.3C16.3669 53.9865 20.235 51.7249 25.125 49.815C26.7079 49.1967 28.4311 48.6319 30.215 48.09ZM64 51.2C56.961 51.2 51.2 56.9611 51.2 64C51.2 71.0389 56.961 76.8 64 76.8C71.0389 76.8 76.8 71.0389 76.8 64C76.8 56.9611 71.0389 51.2 64 51.2ZM64 56.32C68.2718 56.32 71.68 59.7281 71.68 64C71.68 68.2719 68.2718 71.68 64 71.68C59.7281 71.68 56.32 68.2719 56.32 64C56.32 59.7281 59.7281 56.32 64 56.32ZM88.625 70.05C89.9676 73.2275 91.1346 76.3367 92.115 79.335C89.0363 80.0489 85.7582 80.6504 82.31 81.125C83.3026 79.5412 84.2828 77.9278 85.24 76.27C86.4398 74.1918 87.5541 72.1164 88.625 70.05ZM39.275 70.055C40.3515 72.1342 41.4727 74.2189 42.68 76.31C43.6251 77.947 44.5902 79.5452 45.57 81.11C42.132 80.6333 38.8639 80.0297 35.795 79.315C36.7709 76.3259 37.9385 73.2231 39.275 70.055ZM34.32 84.285C38.9531 85.3826 43.9749 86.2257 49.3 86.775C52.8554 91.9174 56.5572 96.5358 60.285 100.575C58.6184 102.2 56.9665 103.725 55.35 105.04C51.1881 108.425 47.243 110.724 43.955 111.79C40.6669 112.856 38.213 112.715 36.385 111.66C34.557 110.605 33.2108 108.551 32.49 105.17C31.7691 101.789 31.789 97.2269 32.64 91.93C33.026 89.527 33.6029 86.9539 34.32 84.285ZM93.595 84.305C94.3175 86.9888 94.8968 89.5739 95.285 91.99C96.1366 97.2915 96.1579 101.86 95.435 105.25C94.712 108.64 93.3548 110.71 91.51 111.775C89.6651 112.84 87.1925 112.984 83.895 111.915C80.5974 110.846 76.6504 108.538 72.485 105.15C70.8568 103.826 69.1935 102.293 67.515 100.655C71.2669 96.6005 74.9964 91.9571 78.575 86.785C83.9134 86.2393 88.9492 85.4013 93.595 84.305ZM55.98 87.3C58.6085 87.4432 61.2716 87.54 64 87.54C66.6381 87.54 69.2149 87.449 71.76 87.315C69.1583 90.8252 66.5063 94.0164 63.865 96.89C61.2252 94.0102 58.5783 90.8133 55.98 87.3Z" fill="black"/>
</svg>
