<svg width="128" height="135" viewBox="0 0 128 135" fill="none" xmlns="http://www.w3.org/2000/svg">
<rect width="128" height="134.68" rx="4" fill="white"/>
<path d="M8.52359 82.3416C5.99086 74.4512 5.26027 66.1224 6.72146 57.5501C7.35464 53.9946 8.32876 50.5851 9.4003 47.127C9.4003 47.127 16.1218 25.0631 38.8676 14.9809C38.8676 14.9809 46.7093 10.8408 58.4962 10.5486C58.4962 10.5486 56.8889 8.98999 55.8661 8.3081C50.3135 4.60643 42.0335 3.38877 37.0167 8.60034C35.5068 10.1589 34.2405 11.8637 32.828 13.4223C31.2207 15.1757 29.2724 16.6369 27.032 17.4649C25.0837 18.1955 23.1355 18.0494 21.1385 18.3903C19.0928 18.7312 16.9985 19.4618 15.3425 20.7769C13.5403 22.2381 12.8097 24.1863 12.6149 26.4268C12.4201 28.1802 12.4688 29.9824 12.3714 31.7358C12.1278 36.8987 10.4718 38.3599 6.77016 41.2335C5.21156 42.4025 3.89649 43.9611 2.92237 45.6171C-3.99522e-06 50.7799 4.67579 56.1376 4.91933 61.3492C4.96803 62.4207 4.87062 63.4923 4.48097 64.5151C4.09132 65.6354 3.31202 66.3659 2.67884 67.2914C1.80213 68.509 1.21765 69.9702 1.46118 71.4801C1.70471 72.99 2.48401 74.4025 3.21461 75.7175C4.62709 78.0554 6.38051 80.1498 8.23135 82.1468C8.32876 82.1468 8.42617 82.2442 8.52359 82.3416Z" fill="#E32286"/>
<path d="M101.455 101.045C112.658 96.1742 117.431 87.748 117.431 87.748C127.903 73.477 124.347 58.4268 124.347 58.4268C117.674 72.9413 111.586 76.9352 111.586 76.9352C128 51.9489 111.683 36.85 111.683 36.85C118.356 51.0722 109.492 68.4116 109.492 68.4116C102.04 84.095 91.4703 89.6962 91.4703 89.6962C103.257 91.888 111.927 83.9489 111.927 83.9489C95.0259 102.214 76.7123 101.337 76.7123 101.337C84.4079 109.958 95.9513 109.227 95.9513 109.227C80.8524 112.783 66.6788 107.766 55.038 98.0737C52.8463 96.2716 50.7519 94.3233 48.8036 92.229C48.8036 92.229 47.0502 90.3781 46.7093 89.8911L46.6606 89.8423C46.417 98.853 55.8173 107.23 55.8173 107.23C44.0304 102.36 38.624 91.7906 38.624 91.7906C38.624 91.7906 30.6849 78.2503 36.4323 62.8104C42.1796 47.3705 59.5677 44.0585 59.5677 44.0585C73.9361 51.0235 86.1126 53.2153 86.1126 53.2153C111.781 57.5014 110.32 44.9352 110.32 44.9352C110.563 34.1224 94.2466 22.6277 94.2466 22.6277C65.1689 1.05087 38.8676 14.9809 38.8676 14.9809C16.1218 25.063 9.4003 47.127 9.4003 47.127C8.32876 50.5851 7.35464 53.9946 6.72146 57.5501C4.23744 72.0159 7.98782 85.7023 16.1218 97.8789C28.7854 116.777 49.3394 123.304 49.3394 123.304C79.7808 133.629 100.578 118.433 100.578 118.433C119.72 105.282 123.568 90.0859 123.568 90.0859C108.128 102.165 101.455 101.045 101.455 101.045ZM77.6864 29.9824C79.1476 29.9824 80.3166 31.1513 80.3166 32.6125C80.3166 34.0737 79.1476 35.2427 77.6864 35.2427C76.2253 35.2427 75.0563 34.0737 75.0563 32.6125C75.0563 31.1513 76.2253 29.9824 77.6864 29.9824Z" fill="url(#paint0_linear_0_1133)"/>
<path d="M110.271 44.8865C110.514 34.0737 94.1979 22.579 94.1979 22.579C65.1202 1.05087 38.8189 14.9809 38.8189 14.9809C16.0731 25.063 9.35159 47.127 9.35159 47.127C8.03652 50.8774 6.86757 56.6247 6.86757 56.6247C5.45509 63.8332 6.08827 70.506 6.08827 70.506C6.67275 76.8865 8.08523 81.1726 8.08523 81.1726C9.54642 85.751 10.2283 87.1635 10.2283 87.1635C10.1796 87.0174 9.93607 85.9458 9.93607 85.9458C9.93607 85.9458 7.89041 76.1072 9.78995 66.6582C9.78995 66.6582 11.446 56.8195 18.1674 49.2213C18.1674 49.2213 29.0776 33.6841 49.3881 39.7723C49.3881 39.7723 53.7717 41.3309 55.2816 42.1102C56.7915 42.8408 59.4216 43.9611 59.4216 43.9611C73.79 50.9261 85.9665 53.1178 85.9665 53.1178C111.732 57.4527 110.271 44.8865 110.271 44.8865ZM77.6865 35.2914C76.2253 35.2914 75.0563 34.1224 75.0563 32.6612C75.0563 31.2 76.2253 30.0311 77.6865 30.0311C79.1476 30.0311 80.3166 31.2 80.3166 32.6612C80.3166 34.1224 79.1476 35.2914 77.6865 35.2914Z" fill="url(#paint1_radial_0_1133)"/>
<path d="M61.0289 25.3066L44.4201 20.1437C44.3227 20.1437 43.8356 19.9002 42.9589 20.1437C42.9589 20.1437 33.1689 22.6277 34.8737 27.9854C34.8737 27.9854 35.8965 31.3462 38.6728 34.6095L56.9376 33.7328L61.0289 25.3066Z" fill="url(#paint2_linear_0_1133)"/>
<defs>
<linearGradient id="paint0_linear_0_1133" x1="20.1624" y1="117.605" x2="80.7705" y2="53.129" gradientUnits="userSpaceOnUse">
<stop stop-color="#E01D84"/>
<stop offset="0.401" stop-color="#DF1D85"/>
<stop offset="0.77" stop-color="#932C87"/>
<stop offset="1" stop-color="#5D2F88"/>
</linearGradient>
<radialGradient id="paint1_radial_0_1133" cx="0" cy="0" r="1" gradientUnits="userSpaceOnUse" gradientTransform="translate(86.8703 36.0236) rotate(0.136937) scale(59.2182 49.5183)">
<stop stop-color="#E01D84"/>
<stop offset="0.139" stop-color="#DE1E85"/>
<stop offset="0.285" stop-color="#D62085"/>
<stop offset="0.434" stop-color="#C92386"/>
<stop offset="0.586" stop-color="#B72786"/>
<stop offset="0.739" stop-color="#9D2B87"/>
<stop offset="0.891" stop-color="#7C2E88"/>
<stop offset="1" stop-color="#5D2F88"/>
</radialGradient>
<linearGradient id="paint2_linear_0_1133" x1="34.636" y1="27.3211" x2="61.0148" y2="27.3211" gradientUnits="userSpaceOnUse">
<stop stop-color="#E01D84"/>
<stop offset="0.238" stop-color="#DA1E85"/>
<stop offset="0.658" stop-color="#C72085"/>
<stop offset="0.999" stop-color="#B52284"/>
</linearGradient>
</defs>
</svg>
