<svg width="128" height="129" viewBox="0 0 128 129" fill="none" xmlns="http://www.w3.org/2000/svg">
<path d="M96.7968 122.28H31.2032C17.504 122.28 6.39999 111.176 6.39999 97.4769V31.8833C6.39999 18.1841 17.504 7.08015 31.2032 7.08015H96.7936C110.496 7.08015 121.6 18.1841 121.6 31.8833V97.4737C121.6 111.176 110.496 122.28 96.7968 122.28Z" fill="#0D47A1"/>
<path d="M121.6 31.8833C121.6 18.1841 110.496 7.08015 96.7968 7.08015H31.2032C17.504 7.08015 6.39999 18.1841 6.39999 31.8833V60.7729C16 71.0801 33.6064 83.6209 50.0672 83.5121C71.9808 83.3681 104.493 74.8113 121.6 56.3825V31.8833Z" fill="#1565C0"/>
<path d="M121.6 31.8833C121.6 18.1841 110.496 7.08015 96.7968 7.08015H31.2032C17.504 7.08015 6.39999 18.1841 6.39999 31.8833V59.8833C16 71.0801 29.5008 75.4289 50.2208 75.5793C83.6576 75.8225 109.85 60.1265 121.6 45.4545V31.8833Z" fill="#1E88E5"/>
<path d="M121.6 31.8833C121.6 18.1841 110.496 7.08015 96.7968 7.08015H31.2032C17.504 7.08015 6.39999 18.1841 6.39999 31.8833V58.0593C20.5056 66.6001 35.4464 68.4977 46.9568 68.7345C80.5152 68.9265 110.755 51.9793 121.6 32.2609V31.8833Z" fill="#29B6F6"/>
<path d="M96.7968 7.08015H31.2032C17.504 7.08015 6.39999 18.1841 6.39999 31.8833V51.0194C19.7344 59.685 33.5104 62.1617 47.7344 62.0465C70.7552 62.0465 107.632 49.7841 118.982 20.8369C114.915 12.6897 106.522 7.08015 96.7968 7.08015Z" fill="#00E5FF"/>
<path d="M96.7968 7.08015H31.2032C17.504 7.08015 6.39999 18.1841 6.39999 31.8833V43.6945C21.5936 53.9249 40.1376 58.4241 63.2896 52.8689C91.9072 46.0017 108.125 30.7025 113.946 13.9921C109.491 9.72015 103.456 7.08015 96.7968 7.08015Z" fill="#18FFFF"/>
<path d="M52.912 7.08015H31.2032C17.504 7.08015 6.39999 18.1841 6.39999 31.8833V62.3921L6.60159 62.6769C20.2016 81.8769 53.8016 94.2769 75.8016 74.0785C88.6016 58.0785 81.2032 31.8769 71.6 23.2785C66.7776 18.9585 59.232 12.4689 52.912 7.08015Z" fill="#448AFF"/>
<path d="M54.3136 7.08015H31.2032C17.504 7.08015 6.39999 18.1841 6.39999 31.8833V62.9809C22.6528 75.6305 48.016 80.6129 65.8016 64.2801C78.6016 48.2801 71.2032 22.0785 61.6 13.4801C59.5616 11.6561 57.0272 9.43215 54.3136 7.08015Z" fill="#40C4FF"/>
<path d="M31.2032 7.08015C17.504 7.08015 6.39999 18.1841 6.39999 31.8833V57.2657C21.3952 63.5857 39.408 63.5569 53.0016 51.0801C63.3184 38.1841 60.5056 18.6705 54 7.08015H31.2032Z" fill="#00E5FF"/>
<path d="M31.2032 7.08015C17.504 7.08015 6.39999 18.1841 6.39999 31.8833V47.0065C17.5232 48.2289 28.976 45.5377 38.3328 36.9457C45.1136 28.4689 46.2048 17.1441 44.32 7.08015H31.2032Z" fill="#18FFFF"/>
<path d="M27.5472 35.4645C27.5472 35.4645 49.4128 68.5109 67.7968 79.6885C60.84 81.9253 45.736 91.0645 19.4 74.9141C26.1072 84.1077 37.9824 102.546 67.0512 100.809C77.2368 100.313 83.448 97.0805 89.1632 94.8469C94.8784 92.6133 100.344 92.8597 105.064 101.308C106.059 93.6053 106.306 86.3989 98.3568 78.2005C98.3568 78.2005 106.216 48.2389 72.7536 24.5973C79.7104 38.5109 83.7392 46.3573 80.4688 65.5285C73.016 60.5589 45.4896 38.3925 39.2784 31.1861C43.752 39.1381 56.6192 56.5813 61.0896 61.0549C53.1408 55.5893 27.5472 35.4645 27.5472 35.4645Z" fill="#212121"/>
</svg>
