<svg width="20" height="20" viewBox="0 0 20 20" fill="none" xmlns="http://www.w3.org/2000/svg">
<g id="icon / heroicons / Outline / adjustments">
<path id="Icon" d="M14.9974 9.9987H16.6641M14.9974 9.9987C14.9974 9.07822 14.2512 8.33203 13.3307 8.33203C12.4103 8.33203 11.6641 9.07822 11.6641 9.9987M14.9974 9.9987C14.9974 10.9192 14.2512 11.6654 13.3307 11.6654C12.4103 11.6654 11.6641 10.9192 11.6641 9.9987M4.9974 4.9987C4.9974 5.91917 5.74359 6.66536 6.66406 6.66536C7.58454 6.66536 8.33073 5.91917 8.33073 4.9987M4.9974 4.9987C4.9974 4.07822 5.74359 3.33203 6.66406 3.33203C7.58454 3.33203 8.33073 4.07822 8.33073 4.9987M4.9974 4.9987H3.33073M8.33073 4.9987H16.6641M11.6641 9.9987H3.33073M4.9974 14.9987C4.9974 15.9192 5.74359 16.6654 6.66406 16.6654C7.58454 16.6654 8.33073 15.9192 8.33073 14.9987M4.9974 14.9987C4.9974 14.0782 5.74359 13.332 6.66406 13.332C7.58454 13.332 8.33073 14.0782 8.33073 14.9987M4.9974 14.9987H3.33073M8.33073 14.9987H16.6641" stroke="white" stroke-width="1.3" stroke-linecap="round" stroke-linejoin="round"/>
</g>
</svg>
