<svg width="16" height="16" viewBox="0 0 16 16" fill="none" xmlns="http://www.w3.org/2000/svg">
<g id="icon / heroicons / Outline / dots-vertical">
<path id="Icon" d="M7.9974 3.33464L7.9974 3.3413M7.9974 8.0013L7.9974 8.00797M7.9974 12.668L7.9974 12.6746M7.9974 4.0013C7.62921 4.0013 7.33073 3.70283 7.33073 3.33464C7.33073 2.96645 7.62921 2.66797 7.9974 2.66797C8.36559 2.66797 8.66406 2.96645 8.66406 3.33464C8.66406 3.70283 8.36559 4.0013 7.9974 4.0013ZM7.9974 8.66797C7.62921 8.66797 7.33073 8.36949 7.33073 8.0013C7.33073 7.63311 7.62921 7.33464 7.9974 7.33464C8.36559 7.33464 8.66406 7.63311 8.66406 8.0013C8.66406 8.36949 8.36559 8.66797 7.9974 8.66797ZM7.9974 13.3346C7.62921 13.3346 7.33073 13.0362 7.33073 12.668C7.33073 12.2998 7.62921 12.0013 7.9974 12.0013C8.36559 12.0013 8.66406 12.2998 8.66406 12.668C8.66406 13.0362 8.36559 13.3346 7.9974 13.3346Z" stroke="#7F7F7F" stroke-width="1.33333" stroke-linecap="round" stroke-linejoin="round"/>
</g>
</svg>
