<svg width="25" height="30" viewBox="0 0 25 30" fill="none" xmlns="http://www.w3.org/2000/svg">
<path id="Vector" d="M20.8298 28.4827C19.2144 30.0486 17.4508 29.8014 15.753 29.0597C13.9563 28.3014 12.308 28.2685 10.4125 29.0597C8.03892 30.0816 6.78621 29.7849 5.36866 28.4827C-2.67507 20.1918 -1.48829 7.56573 7.64333 7.1042C9.86854 7.21958 11.418 8.32395 12.7201 8.42285C14.6651 8.02726 16.5277 6.88992 18.6046 7.03827C21.0935 7.23607 22.9726 8.22505 24.2088 10.0052C19.0661 13.0876 20.2858 19.8621 25 21.7577C24.0605 24.2301 22.8407 26.6861 20.8133 28.4992L20.8298 28.4827ZM12.5553 7.00531C12.308 3.32958 15.2915 0.296695 18.72 0C19.198 4.25263 14.8629 7.41738 12.5553 7.00531Z" fill="#FAFAFA"/>
</svg>
