<svg width="50" height="50" viewBox="0 0 50 50" fill="none" xmlns="http://www.w3.org/2000/svg">
<path d="M6.25 18.7487C6.25 16.4475 8.11548 14.582 10.4167 14.582H12.3534C13.7465 14.582 15.0475 13.8858 15.8203 12.7266L17.5131 10.1874C18.2858 9.02829 19.5868 8.33203 20.9799 8.33203H29.0201C30.4132 8.33203 31.7142 9.02829 32.4869 10.1874L34.1797 12.7266C34.9525 13.8858 36.2535 14.582 37.6466 14.582H39.5833C41.8845 14.582 43.75 16.4475 43.75 18.7487V37.4987C43.75 39.7999 41.8845 41.6654 39.5833 41.6654H10.4167C8.11548 41.6654 6.25 39.7999 6.25 37.4987V18.7487Z" stroke="#7F7F7F" stroke-width="2" stroke-linecap="round" stroke-linejoin="round"/>
<path d="M31.25 27.082C31.25 30.5338 28.4518 33.332 25 33.332C21.5482 33.332 18.75 30.5338 18.75 27.082C18.75 23.6303 21.5482 20.832 25 20.832C28.4518 20.832 31.25 23.6303 31.25 27.082Z" stroke="#7F7F7F" stroke-width="2" stroke-linecap="round" stroke-linejoin="round"/>
</svg>
