<svg width="33" height="32" viewBox="0 0 33 32" fill="none" xmlns="http://www.w3.org/2000/svg">
<path d="M19.0641 3.33727C19.5868 3.33723 20.1005 3.47377 20.5542 3.73337C21.0079 3.99296 21.3859 4.36661 21.6507 4.81727L22.7361 6.6666H25.4974C26.6464 6.6666 27.7484 7.12297 28.5611 7.93534C29.3737 8.74771 29.8304 9.84956 29.8307 10.9986V23.6653C29.8307 24.2343 29.7186 24.7978 29.5009 25.3236C29.2831 25.8493 28.9639 26.327 28.5615 26.7294C28.1591 27.1318 27.6814 27.451 27.1557 27.6688C26.6299 27.8865 26.0665 27.9986 25.4974 27.9986H7.4974C6.34812 27.9986 5.24592 27.5421 4.43327 26.7294C3.62061 25.9167 3.16406 24.8145 3.16406 23.6653V10.9986C3.16406 9.84933 3.62061 8.74713 4.43327 7.93447C5.24592 7.12182 6.34812 6.66527 7.4974 6.66527H10.2707L11.4374 4.7666C11.7056 4.32956 12.0814 3.96858 12.5289 3.71812C12.9764 3.46765 13.4806 3.33607 13.9934 3.33594H19.0641V3.33727ZM16.4974 10.6653C14.9061 10.6653 13.38 11.2974 12.2548 12.4226C11.1295 13.5478 10.4974 15.074 10.4974 16.6653C10.4974 18.2566 11.1295 19.7827 12.2548 20.9079C13.38 22.0331 14.9061 22.6653 16.4974 22.6653C18.0887 22.6653 19.6148 22.0331 20.74 20.9079C21.8653 19.7827 22.4974 18.2566 22.4974 16.6653C22.4974 15.074 21.8653 13.5478 20.74 12.4226C19.6148 11.2974 18.0887 10.6653 16.4974 10.6653ZM16.4974 12.6653C17.0227 12.6653 17.5428 12.7687 18.0281 12.9698C18.5134 13.1708 18.9544 13.4654 19.3258 13.8368C19.6973 14.2083 19.9919 14.6492 20.1929 15.1345C20.3939 15.6198 20.4974 16.14 20.4974 16.6653C20.4974 17.1906 20.3939 17.7107 20.1929 18.196C19.9919 18.6813 19.6973 19.1223 19.3258 19.4937C18.9544 19.8651 18.5134 20.1598 18.0281 20.3608C17.5428 20.5618 17.0227 20.6653 16.4974 20.6653C15.4365 20.6653 14.4191 20.2438 13.669 19.4937C12.9188 18.7436 12.4974 17.7261 12.4974 16.6653C12.4974 15.6044 12.9188 14.587 13.669 13.8368C14.4191 13.0867 15.4365 12.6653 16.4974 12.6653Z" fill="#999999"/>
</svg>
