<svg width="24" height="25" viewBox="0 0 24 25" fill="none" xmlns="http://www.w3.org/2000/svg">
<g id="icon / heroicons / Outline / mail">
<path id="Icon (Stroke)" fill-rule="evenodd" clip-rule="evenodd" d="M2.00011 7.5C2.00011 5.84315 3.34325 4.5 5.00011 4.5H19.0001C20.657 4.5 22.0001 5.84315 22.0001 7.5V8.48448C22.0002 8.49422 22.0002 8.50395 22.0001 8.51368V17.5C22.0001 19.1569 20.657 20.5 19.0001 20.5H5.00011C3.34325 20.5 2.00011 19.1569 2.00011 17.5V8.51367C1.99996 8.50395 1.99996 8.49422 2.00011 8.48449V7.5ZM4.00011 10.3685V17.5C4.00011 18.0523 4.44782 18.5 5.00011 18.5H19.0001C19.5524 18.5 20.0001 18.0523 20.0001 17.5V10.3685L13.6642 14.5925C12.6565 15.2642 11.3437 15.2642 10.336 14.5925L4.00011 10.3685ZM20.0001 7.96482L12.5548 12.9283C12.2189 13.1523 11.7813 13.1523 11.4454 12.9283L4.00011 7.96482V7.5C4.00011 6.94772 4.44782 6.5 5.00011 6.5H19.0001C19.5524 6.5 20.0001 6.94772 20.0001 7.5V7.96482Z" fill="#030303"/>
</g>
</svg>
