<svg width="12" height="12" viewBox="0 0 12 12" fill="none" xmlns="http://www.w3.org/2000/svg">
<path fill-rule="evenodd" clip-rule="evenodd" d="M10.5 3.5H4.91465C4.70873 2.9174 4.15311 2.5 3.5 2.5C2.84689 2.5 2.29127 2.9174 2.08535 3.5H1.5C1.22386 3.5 1 3.72386 1 4C1 4.27614 1.22386 4.5 1.5 4.5H2.08535C2.29127 5.0826 2.84689 5.5 3.5 5.5C4.15311 5.5 4.70873 5.0826 4.91465 4.5H10.5C10.7761 4.5 11 4.27614 11 4C11 3.72386 10.7761 3.5 10.5 3.5ZM1.5 7.5C1.22386 7.5 1 7.72386 1 8C1 8.27614 1.22386 8.5 1.5 8.5H7.08535C7.29127 9.0826 7.84689 9.5 8.5 9.5C9.15311 9.5 9.70873 9.0826 9.91465 8.5H10.5C10.7761 8.5 11 8.27614 11 8C11 7.72386 10.7761 7.5 10.5 7.5H9.91465C9.70873 6.9174 9.15311 6.5 8.5 6.5C7.84689 6.5 7.29127 6.9174 7.08535 7.5H1.5Z" fill="#030303"/>
</svg>
