<svg width="20" height="20" viewBox="0 0 20 20" fill="none" xmlns="http://www.w3.org/2000/svg">
<g id="icon / heroicons / Outline / adjustments">
<path id="Icon" d="M15.0013 9.9987H16.668M15.0013 9.9987C15.0013 9.07822 14.2551 8.33203 13.3346 8.33203C12.4142 8.33203 11.668 9.07822 11.668 9.9987M15.0013 9.9987C15.0013 10.9192 14.2551 11.6654 13.3346 11.6654C12.4142 11.6654 11.668 10.9192 11.668 9.9987M5.0013 4.9987C5.0013 5.91917 5.74749 6.66536 6.66797 6.66536C7.58844 6.66536 8.33464 5.91917 8.33464 4.9987M5.0013 4.9987C5.0013 4.07822 5.74749 3.33203 6.66797 3.33203C7.58844 3.33203 8.33464 4.07822 8.33464 4.9987M5.0013 4.9987H3.33464M8.33464 4.9987H16.668M11.668 9.9987H3.33464M5.0013 14.9987C5.0013 15.9192 5.74749 16.6654 6.66797 16.6654C7.58844 16.6654 8.33464 15.9192 8.33464 14.9987M5.0013 14.9987C5.0013 14.0782 5.74749 13.332 6.66797 13.332C7.58844 13.332 8.33464 14.0782 8.33464 14.9987M5.0013 14.9987H3.33464M8.33464 14.9987H16.668" stroke="white" stroke-width="1.3" stroke-linecap="round" stroke-linejoin="round"/>
</g>
</svg>
