<svg width="24" height="25" viewBox="0 0 24 25" fill="none" xmlns="http://www.w3.org/2000/svg">
<path d="M16.8503 0.5H7.14973C3.20735 0.5 0 3.70735 0 7.64973V17.3503C0 21.2926 3.20735 24.5 7.14973 24.5H16.8503C20.7926 24.5 24 21.2926 24 17.3503V7.64973C24 3.70735 20.7926 0.5 16.8503 0.5ZM21.5856 17.3503C21.5856 19.9655 19.4655 22.0856 16.8503 22.0856H7.14973C4.5345 22.0856 2.4144 19.9655 2.4144 17.3503V7.64973C2.4144 5.03446 4.5345 2.9144 7.14973 2.9144H16.8503C19.4655 2.9144 21.5856 5.03446 21.5856 7.64973V17.3503Z" fill="url(#paint0_linear_1677_40715)"/>
<path d="M12.0041 6.29297C8.58144 6.29297 5.79688 9.07754 5.79688 12.5002C5.79688 15.9228 8.58144 18.7074 12.0041 18.7074C15.4268 18.7074 18.2114 15.9229 18.2114 12.5002C18.2114 9.07749 15.4268 6.29297 12.0041 6.29297ZM12.0041 16.2931C9.90938 16.2931 8.21127 14.595 8.21127 12.5002C8.21127 10.4055 9.90942 8.70737 12.0041 8.70737C14.0989 8.70737 15.797 10.4055 15.797 12.5002C15.797 14.5949 14.0988 16.2931 12.0041 16.2931Z" fill="url(#paint1_linear_1677_40715)"/>
<path d="M18.2218 7.82633C19.0432 7.82633 19.7091 7.16041 19.7091 6.33895C19.7091 5.51749 19.0432 4.85156 18.2218 4.85156C17.4003 4.85156 16.7344 5.51749 16.7344 6.33895C16.7344 7.16041 17.4003 7.82633 18.2218 7.82633Z" fill="url(#paint2_linear_1677_40715)"/>
<defs>
<linearGradient id="paint0_linear_1677_40715" x1="12" y1="24.4301" x2="12" y2="0.686412" gradientUnits="userSpaceOnUse">
<stop stop-color="#E09B3D"/>
<stop offset="0.3" stop-color="#C74C4D"/>
<stop offset="0.6" stop-color="#C21975"/>
<stop offset="1" stop-color="#7024C4"/>
</linearGradient>
<linearGradient id="paint1_linear_1677_40715" x1="12.0041" y1="24.4304" x2="12.0041" y2="0.686636" gradientUnits="userSpaceOnUse">
<stop stop-color="#E09B3D"/>
<stop offset="0.3" stop-color="#C74C4D"/>
<stop offset="0.6" stop-color="#C21975"/>
<stop offset="1" stop-color="#7024C4"/>
</linearGradient>
<linearGradient id="paint2_linear_1677_40715" x1="18.2218" y1="24.4297" x2="18.2218" y2="0.686012" gradientUnits="userSpaceOnUse">
<stop stop-color="#E09B3D"/>
<stop offset="0.3" stop-color="#C74C4D"/>
<stop offset="0.6" stop-color="#C21975"/>
<stop offset="1" stop-color="#7024C4"/>
</linearGradient>
</defs>
</svg>
