<svg width="16" height="17" viewBox="0 0 16 17" fill="none" xmlns="http://www.w3.org/2000/svg">
<path d="M9.9987 11.835H13.3326L12.3958 10.8982C12.1418 10.6442 11.9991 10.2996 11.9991 9.94029V7.83428C11.9991 6.09235 10.8858 4.61043 9.33191 4.06122V3.83357C9.33191 3.09706 8.73485 2.5 7.99834 2.5C7.26183 2.5 6.66477 3.09706 6.66477 3.83357V4.06122C5.11091 4.61043 3.99763 6.09235 3.99763 7.83428V9.94029C3.99763 10.2996 3.85491 10.6442 3.60085 10.8982L2.66406 11.835H5.99799M9.9987 11.835V12.5018C9.9987 13.6065 9.10311 14.5021 7.99834 14.5021C6.89358 14.5021 5.99799 13.6065 5.99799 12.5018V11.835M9.9987 11.835H5.99799" stroke="#CCCCCC" stroke-width="1.33357" stroke-linecap="round" stroke-linejoin="round"/>
<path d="M12.6678 3.5L2 14.1678" stroke="#CCCCCC" stroke-width="1.33333"/>
<path d="M13.3318 4.16797L2.66406 14.8357" stroke="white" stroke-width="0.666667"/>
</svg>
