<svg width="24" height="24" viewBox="0 0 24 24" fill="none" xmlns="http://www.w3.org/2000/svg">
<path fill-rule="evenodd" clip-rule="evenodd" d="M3.60156 8.39922C3.60156 7.73648 4.13882 7.19922 4.80156 7.19922H19.2016C19.8643 7.19922 20.4016 7.73648 20.4016 8.39922C20.4016 9.06196 19.8643 9.59922 19.2016 9.59922H4.80156C4.13882 9.59922 3.60156 9.06196 3.60156 8.39922Z" fill="#030303"/>
<path fill-rule="evenodd" clip-rule="evenodd" d="M3.60156 15.5992C3.60156 14.9365 4.13882 14.3992 4.80156 14.3992H19.2016C19.8643 14.3992 20.4016 14.9365 20.4016 15.5992C20.4016 16.262 19.8643 16.7992 19.2016 16.7992H4.80156C4.13882 16.7992 3.60156 16.262 3.60156 15.5992Z" fill="#030303"/>
<circle cx="8.4" cy="8.4" r="2.4" fill="#030303"/>
<circle cx="15.5992" cy="15.5992" r="2.4" fill="#030303"/>
</svg>
