<svg width="24" height="25" viewBox="0 0 24 25" fill="none" xmlns="http://www.w3.org/2000/svg">
<path id="Vector" fill-rule="evenodd" clip-rule="evenodd" d="M10.742 0.564083C8.02373 0.850143 5.48839 2.06521 3.53808 4.01653C2.50228 5.0529 1.84489 5.95388 1.25198 7.14965C0.4024 8.86295 0.00168826 10.5637 1.2554e-05 12.4632C-0.0010803 13.674 0.0688621 14.2871 0.333842 15.3906C0.971193 18.0445 2.62562 20.5421 4.80127 22.1347C5.01292 22.2896 5.19754 22.4042 5.21146 22.3894C5.22545 22.3746 5.43892 22.0896 5.68583 21.7559C6.57315 20.5571 7.91721 19.3068 9.01669 18.6576L9.53908 18.349L9.07658 17.9357C7.65128 16.6621 6.68185 14.8543 6.48186 13.0972C6.27502 11.2801 6.73759 9.45436 7.80589 7.8715C8.56119 6.75244 10.153 5.28866 11.2499 4.7046C11.6211 4.50691 11.7344 4.48048 12.0979 4.50676C12.4698 4.53362 12.5991 4.59142 13.238 5.01636C15.3301 6.40779 16.7628 8.28872 17.3299 10.3888C17.4933 10.9933 17.5174 11.2311 17.5221 12.2813C17.5268 13.3185 17.5047 13.566 17.3601 14.0961C17.001 15.4129 16.386 16.4374 15.2593 17.5961L14.5149 18.3616L14.8196 18.5349C15.8841 19.1405 17.6647 20.8027 18.3991 21.8766C18.5956 22.1639 18.7812 22.3989 18.8116 22.3989C18.9383 22.3989 20.0509 21.458 20.6384 20.8541C22.3274 19.1179 23.4312 16.9229 23.8697 14.4285C24.0535 13.3833 24.0413 11.5678 23.8431 10.4599C23.4935 8.50578 22.6629 6.64188 21.4598 5.11156C18.9173 1.87748 14.8122 0.135721 10.742 0.564083ZM11.4609 7.93213C10.4993 8.75799 9.7634 9.9034 9.46826 11.0334C9.29683 11.6898 9.26601 12.7186 9.40028 13.3003C9.64392 14.3557 10.3892 15.4402 11.4752 16.3198L12.0519 16.7869L12.2636 16.6363C13.0335 16.0886 13.8576 15.119 14.2575 14.2904C15.2229 12.2899 14.6165 9.84284 12.715 8.0657C12.1235 7.51301 11.9682 7.49642 11.4609 7.93213ZM11.2992 20.442C10.4496 20.9524 9.62039 21.6133 8.95375 22.3113C8.31567 22.9793 7.8174 23.6834 7.91758 23.7754C8.02409 23.8732 8.87258 24.1314 9.62352 24.2945C10.632 24.5134 12.5961 24.5679 13.6864 24.4071C14.7495 24.2503 16.1806 23.851 16.1806 23.7111C16.1806 23.682 16.0096 23.4321 15.8006 23.1558C15.3293 22.533 14.5768 21.7926 13.8948 21.2805C13.3233 20.8515 12.0899 20.0696 11.985 20.0698C11.9485 20.0699 11.6398 20.2374 11.2992 20.442Z" fill="#4962FF"/>
</svg>
