<svg width="151" height="23" viewBox="0 0 151 23" fill="none" xmlns="http://www.w3.org/2000/svg">
<g id="Group 1410168031">
<path id="Vector" d="M144.815 7.63313C144.415 6.03263 143.091 5.10927 141.121 5.10927C138.013 5.10927 136.197 7.44846 136.197 11.4189C136.197 15.4202 137.89 17.7901 141.091 17.7901C143.876 17.7901 145.292 16.482 145.338 14.4045H141.214V10.2185H151.001V13.2656C151.001 19.3291 146.846 22.8994 141.029 22.8994C134.565 22.8994 130.164 18.5288 130.164 11.4805C130.164 4.15513 134.996 0 140.998 0C146.231 0 150.263 3.17021 150.755 7.63313H144.815Z" fill="#F7FAFF"/>
<path id="Vector_2" d="M127.459 11.4497C127.459 18.8674 122.719 22.8994 116.686 22.8994C110.592 22.8994 105.883 18.8366 105.883 11.4497C105.883 4.03202 110.592 0 116.686 0C122.719 0 127.459 4.03202 127.459 11.4497ZM121.426 11.4497C121.426 7.35612 119.733 5.10927 116.686 5.10927C113.608 5.10927 111.915 7.35612 111.915 11.4497C111.915 15.5433 113.608 17.7901 116.686 17.7901C119.733 17.7901 121.426 15.5433 121.426 11.4497Z" fill="#F7FAFF"/>
<path id="Vector_3" d="M89.4766 22.5885V0.304688H95.3245V17.8486H104.404V22.5885H89.4766Z" fill="#F7FAFF"/>
<path id="Vector_4" d="M73.8354 8.58727C73.6507 6.49431 72.2349 5.10927 69.8649 5.10927C66.787 5.10927 65.0326 7.47923 65.0326 11.4497C65.0326 15.6356 66.8178 17.7901 69.8341 17.7901C72.081 17.7901 73.5276 16.559 73.8354 14.5891L79.7757 14.6507C79.4679 18.4672 76.113 22.8994 69.711 22.8994C63.586 22.8994 59 18.8366 59 11.4497C59 4.03202 63.7091 0 69.711 0C75.2512 0 79.2832 3.10865 79.7757 8.58727H73.8354Z" fill="#F7FAFF"/>
<path id="Vector_5" d="M41.5514 22.5885H35.2109L42.6286 0.304688H50.6003L57.9872 22.5885H51.6776L50.3541 18.2179H42.8748L41.5514 22.5885ZM44.2291 13.7858H48.9998L46.6914 6.30654H46.5067L44.2291 13.7858Z" fill="#F7FAFF"/>
<path id="Vector_6" d="M20.9609 22.5885V0.304688H36.5042V5.04461H26.8089V9.07663H35.5193V13.8166H26.8089V22.5885H20.9609Z" fill="#F7FAFF"/>
<path id="Vector_7" d="M12.6193 7.20223C12.4962 5.69407 11.5113 4.83226 9.51063 4.83226C7.57157 4.83226 6.70977 5.57095 6.67899 6.61743C6.64821 7.75624 7.69469 8.4026 9.75686 8.8335L11.6036 9.2644C16.4051 10.2801 18.5288 12.6193 18.5596 16.0357C18.5288 20.4063 15.1739 22.8686 9.54141 22.8686C3.78579 22.8686 0.0615575 20.3447 0 14.8661H5.60173C5.69407 16.9283 7.14067 18.0363 9.44907 18.0363C11.4497 18.0363 12.5269 17.2053 12.5577 16.0357C12.5269 14.9585 11.6344 14.3429 9.14129 13.7889L6.89444 13.2964C2.98554 12.4346 0.584796 10.4956 0.584796 7.04833C0.554017 2.83164 4.27825 0 9.51063 0C14.8661 0 18.221 2.86242 18.2518 7.20223H12.6193Z" fill="#F7FAFF"/>
</g>
</svg>
