<svg width="64" height="73" viewBox="0 0 64 73" fill="none" xmlns="http://www.w3.org/2000/svg">
<g id="Vector">
<path d="M28.5533 45.6427L28.5491 45.6455L20.6211 40.9741L20.1844 40.7177L0 28.8261V52.0473L0.0206638 52.1426C0.0220414 52.1524 0.0247966 52.1622 0.0261742 52.1706C0.0454604 52.2617 0.0675018 52.3527 0.0895433 52.4424C0.490422 54.0327 1.32111 55.4549 2.50583 56.5758C2.54303 56.615 2.5816 56.6501 2.62017 56.6851L2.68768 56.7537L30.2642 73V46.6515L28.5533 45.6427ZM20.6211 57.4403L9.64312 50.9726V44.4377L11.7164 45.6595L20.0811 50.5859L20.6211 50.9054V57.4403ZM20.6211 50.2706V50.237L20.6501 50.2538L20.6211 50.2706Z" fill="#4284FF"/>
<path d="M9.35383 21.7265L30.3138 34.0748V43.8814L30.2642 43.852L22.4147 39.2282L22.3858 39.2114L0 26.0225V20.7429L0.0385725 20.5692C0.203883 19.8378 0.460115 19.1358 0.801757 18.4773C0.946403 18.1985 1.10758 17.9266 1.28391 17.6632C1.39412 17.4979 1.51121 17.3354 1.63244 17.177C1.70132 17.0874 1.77158 17.0005 1.84459 16.9136C1.99337 16.7357 2.15593 16.5577 2.33915 16.3742C2.82406 15.8838 3.37096 15.455 3.9647 15.0977L4.04736 15.0459L6.53666 13.5803L6.72952 13.4584H6.74605L7.3701 13.0927L28.7448 0.707988L29.1622 0.466991L29.2435 0.438968C29.5782 0.325476 29.9198 0.233 30.2642 0.165745C30.2808 0.161542 30.2973 0.157338 30.3138 0.154536C30.8635 0.046648 31.42 -0.00519432 31.9766 0.000410254H32.0716C32.3899 0.00741597 32.7067 0.0312354 33.0194 0.0732697C33.7991 0.175553 34.5582 0.391329 35.2842 0.714994L35.3269 0.733208L35.3586 0.74722L40.4515 3.74847L9.35383 21.7265Z" fill="#80ACFF"/>
<path d="M63.9972 21.0456C63.9945 20.3436 63.9063 19.6472 63.7341 18.9747C63.6708 18.7211 63.6019 18.4885 63.5261 18.2657C63.3801 17.837 63.1996 17.4222 62.9889 17.0257C62.982 17.0103 62.9737 16.9963 62.9654 16.9809C62.8897 16.8394 62.8098 16.7006 62.7257 16.5633C62.6293 16.4036 62.5274 16.2509 62.4199 16.0996L33.0194 32.5602V58.6131L55.3419 46.1163V50.9236L33.0194 63.4218V72.7184C33.3432 72.6749 33.6655 72.6119 33.9823 72.5306L34.1022 72.4998C34.2358 72.4634 34.3667 72.4227 34.4934 72.3821L34.5816 72.3527L42.5647 67.7261L42.6625 67.6701L54.1805 60.8955L54.31 60.8199L54.3569 60.7932V60.761L55.5995 60.0646L56.6657 59.4355L56.6891 59.4215H56.6905L60.9197 56.9345L60.979 56.8841C61.0892 56.7916 61.1883 56.7005 61.2793 56.6136C61.8096 56.1176 62.2766 55.5502 62.6651 54.9309C62.942 54.4909 63.1776 54.0271 63.3704 53.5493C63.511 53.1976 63.6294 52.8361 63.7245 52.469C63.9077 51.7615 64 51.0273 64 50.2889V21.1451L63.9972 21.0456ZM54.3569 36.8603L42.6625 43.4078V36.9682L54.3569 30.4206V36.8603Z" fill="#0059FF"/>
</g>
</svg>
