<svg width="27" height="30" viewBox="0 0 27 30" fill="none" xmlns="http://www.w3.org/2000/svg">
<g id="Vector">
<path d="M11.9264 18.7573L11.9247 18.7584L8.61326 16.8387L8.43085 16.7333L0 11.8464V21.3893L0.00863109 21.4285C0.0092065 21.4325 0.0103573 21.4365 0.0109327 21.44C0.0189884 21.4774 0.0281949 21.5148 0.0374014 21.5517C0.204845 22.2052 0.551815 22.7897 1.04666 23.2503C1.0622 23.2664 1.07831 23.2808 1.09442 23.2952L1.12262 23.3235L12.6411 30V19.1718L11.9264 18.7573ZM8.61326 23.6056L4.02784 20.9477V18.2621L4.89383 18.7642L8.3877 20.7887L8.61326 20.92V23.6056ZM8.61326 20.6592V20.6453L8.62534 20.6523L8.61326 20.6592Z" fill="#4284FF"/>
<path d="M3.90701 8.92872L12.6618 14.0034V18.0335L12.6411 18.0214L9.36244 16.1212L9.35035 16.1143L0 10.6942V8.5245L0.0161114 8.4531C0.0851601 8.15252 0.192186 7.86404 0.334886 7.59341C0.395304 7.47882 0.462627 7.36711 0.536279 7.25886C0.582311 7.19092 0.631221 7.12412 0.681856 7.05905C0.710627 7.0222 0.739972 6.9865 0.770469 6.9508C0.832613 6.87767 0.900511 6.80455 0.97704 6.72911C1.17958 6.52758 1.40802 6.35138 1.65602 6.20455L1.69054 6.18324L2.7303 5.58094L2.81086 5.53085H2.81776L3.07842 5.38056L12.0064 0.290954L12.1808 0.191914L12.2147 0.180398C12.3545 0.133757 12.4972 0.0957535 12.6411 0.0681145C12.648 0.066387 12.6549 0.0646596 12.6618 0.063508C12.8914 0.0191704 13.1239 -0.00213465 13.3563 0.000168597H13.396C13.529 0.00304766 13.6613 0.0128365 13.7919 0.0301108C14.1176 0.0721452 14.4346 0.16082 14.7379 0.293833L14.7557 0.301319L14.769 0.307077L16.8962 1.54047L3.90701 8.92872Z" fill="#80ACFF"/>
<path d="M26.7311 8.64887C26.7299 8.36039 26.6931 8.07421 26.6212 7.79782C26.5947 7.6936 26.5659 7.59801 26.5343 7.50646C26.4733 7.33026 26.3979 7.15982 26.3099 6.99687C26.307 6.99053 26.3035 6.98477 26.3001 6.97844C26.2684 6.92028 26.2351 6.86328 26.2 6.80685C26.1597 6.74121 26.1171 6.67844 26.0722 6.61625L13.7919 13.3809V24.0876L23.1158 18.9519V20.9275L13.7919 26.0637V29.8843C13.9271 29.8664 14.0618 29.8405 14.1941 29.8071L14.2442 29.7944C14.3 29.7795 14.3547 29.7628 14.4076 29.7461L14.4444 29.734L17.7789 27.8326L17.8198 27.8096L22.6307 25.0256L22.6848 24.9945L22.7044 24.9835V24.9703L23.2234 24.6841L23.6688 24.4256L23.6785 24.4198H23.6791L25.4456 23.3977L25.4704 23.377C25.5164 23.339 25.5578 23.3016 25.5958 23.2659C25.8173 23.062 26.0124 22.8288 26.1747 22.5743C26.2903 22.3935 26.3887 22.2029 26.4693 22.0066C26.528 21.862 26.5774 21.7135 26.6171 21.5626C26.6937 21.2718 26.7322 20.9701 26.7322 20.6667V8.68976L26.7311 8.64887ZM22.7044 15.1481L17.8198 17.8388V15.1924L22.7044 12.5016V15.1481Z" fill="#0059FF"/>
</g>
</svg>
