<svg width="24" height="25" viewBox="0 0 24 25" fill="none" xmlns="http://www.w3.org/2000/svg">
<g id="youtube">
<rect width="24" height="24" transform="translate(0 0.5)" fill="white"/>
<path id="bg" d="M1.68338 7.95583C1.77978 6.47175 2.97296 5.30867 4.45835 5.23508C6.60929 5.12852 9.6836 5 12 5C14.3164 5 17.3907 5.12852 19.5417 5.23508C21.027 5.30867 22.2202 6.47175 22.3166 7.95583C22.409 9.3777 22.5 11.1272 22.5 12.5C22.5 13.8728 22.409 15.6223 22.3166 17.0442C22.2202 18.5283 21.027 19.6913 19.5417 19.7649C17.3907 19.8715 14.3164 20 12 20C9.6836 20 6.60929 19.8715 4.45835 19.7649C2.97296 19.6913 1.77978 18.5283 1.68338 17.0442C1.59102 15.6223 1.5 13.8728 1.5 12.5C1.5 11.1272 1.59102 9.37769 1.68338 7.95583Z" fill="#FC0D1B"/>
<path id="play" d="M9.75 9.5V15.5L15.75 12.5L9.75 9.5Z" fill="white"/>
</g>
</svg>
